<svg id="Layer_1" data-name="Layer 1" xmlns="http://www.w3.org/2000/svg" width="320" height="210" viewBox="0 0 320 210"><defs><style>.cls-1{fill:#ed1e79;opacity:0.35;}.cls-2{fill:red;opacity:0.31;}</style></defs><title>AFSLUT_SETTING</title><path class="cls-1" d="M263.8468,29.4664a41.2848,41.2848,0,0,0-16.0448,3.2515c-4.7819-12.1172-13.5048-20.2291-23.4763-20.2291-11.106,0-20.6594,10.0656-24.947,24.5183-5.0164-8.7756-12.4062-14.3318-20.6542-14.3318-5.1729,0-10.01,2.1842-14.1354,5.9764C156.6056,13.8793,142.0984,4,125.5231,4,102.9774,4,84.2658,22.2792,80.589,46.29a42.051,42.051,0,0,0-24.9878-8.3345C30.4164,37.9552,10,60.7585,10,88.8879s20.4164,50.9327,45.6012,50.9327c1.3044,0,2.5922-.0756,3.8688-.1955,3.9286,17.5326,21.4565,30.7552,42.4925,30.7552a47.5778,47.5778,0,0,0,21.9779-5.2841c7.8611,15.3246,22.6374,25.6572,39.5837,25.6572,17.6277,0,32.9082-11.1789,40.498-27.5288a26.571,26.571,0,0,0,19.5436,8.8534c15.5307,0,28.1208-14.0621,28.1208-31.4085a34.4956,34.4956,0,0,0-2.1006-11.8923,41.2105,41.2105,0,0,0,14.2609,2.5547c25.1849,0,45.6012-22.8034,45.6012-50.9328S289.0317,29.4664,263.8468,29.4664Z"/><path class="cls-2" d="M163.6592,86.1348l21.8037-29h17.6719L172.4209,97.8594l30.5146,40.498H185.3633L163.6592,109.584l-21.6045,28.7734H124.4336l30.4648-40.498L124.334,57.1348h17.5224Z"/></svg>
