<svg id="Layer_1" data-name="Layer 1" xmlns="http://www.w3.org/2000/svg" width="470" height="300" viewBox="0 0 470 300"><defs><style>.cls-1{fill:#fed2be;}.cls-2{fill:#fedccf;}.cls-13,.cls-3,.cls-6{fill:none;stroke:#998675;stroke-miterlimit:10;}.cls-3,.cls-6{stroke-linecap:round;}.cls-3{stroke-width:3px;}.cls-4,.cls-7{fill:#c1272d;}.cls-4{opacity:0.27;}.cls-5{fill:#fff;}.cls-13,.cls-6{stroke-width:4px;}.cls-7{opacity:0.28;}.cls-8{fill:#fededa;}.cls-9{fill:#fed2ff;}.cls-10{fill:gray;}.cls-11{fill:#e6e6e6;}.cls-12{fill:#b3b3b3;}</style></defs><title>BABY_FLY</title><circle class="cls-1" cx="392.8808" cy="125.5098" r="5.198"/><circle class="cls-2" cx="414.7869" cy="162.2675" r="41.2131"/><path class="cls-3" d="M435.9175,128.44a4.1046,4.1046,0,0,0-1.5947-5.5814,5.1307,5.1307,0,0,0-6.9767,1.9933,6.4134,6.4134,0,0,0,2.4917,8.7209,8.0166,8.0166,0,0,0,10.9011-3.1146,10.021,10.021,0,0,0-3.8933-13.6264"/><ellipse class="cls-4" cx="401.4205" cy="179.7181" rx="13.3664" ry="10.0248" transform="matrix(0.5, -0.866, 0.866, 0.5, 45.0698, 437.4994)"/><ellipse class="cls-5" cx="409.5016" cy="150.1826" rx="9.6535" ry="6.9562" transform="translate(111.0344 468.245) rotate(-66.9607)"/><ellipse cx="409.3623" cy="151.5356" rx="8.354" ry="6.0198" transform="translate(109.7046 468.9403) rotate(-66.9607)"/><ellipse class="cls-5" cx="409.6771" cy="154.8972" rx="2.4134" ry="1.7391" transform="matrix(0.3914, -0.9202, 0.9202, 0.3914, 106.8027, 471.276)"/><ellipse class="cls-5" cx="424.6135" cy="160.9063" rx="9.1549" ry="6.3589" transform="translate(40.1364 402.4944) rotate(-52.8975)"/><ellipse cx="423.6122" cy="160.8112" rx="7.9225" ry="5.5029" transform="translate(39.8149 401.658) rotate(-52.8975)"/><ellipse class="cls-5" cx="420.7772" cy="162.801" rx="2.2887" ry="1.5897" transform="translate(37.1031 400.1864) rotate(-52.8975)"/><path class="cls-6" d="M401.2812,133.3229c1.9253,3.6983,8.879,3.889,15.5316.4259"/><ellipse class="cls-7" cx="392.5095" cy="154.4704" rx="4.0842" ry="7.4258" transform="translate(-3.5078 299.7119) rotate(-41.6227)"/><ellipse class="cls-7" cx="431.1236" cy="175.2626" rx="4.0842" ry="7.4258" transform="translate(172.4045 562.1074) rotate(-78.3486)"/><path class="cls-8" d="M261.8287,153.8366a4.1015,4.1015,0,0,0,1.9625-2.8216,4.298,4.298,0,0,0-8.4689-1.4533,4.0725,4.0725,0,0,0,.3557,2.4723,17.7109,17.7109,0,0,0-2.0024-.1059,4.5344,4.5344,0,0,0,1.7252-2.8239,4.7756,4.7756,0,0,0-9.41-1.6148,4.5055,4.5055,0,0,0-.0513.7671,4.35,4.35,0,0,0-2.3012-1.1708,4.2379,4.2379,0,0,0-4.9409,3.39,4.0437,4.0437,0,0,0,.0346,1.4947,4.4094,4.4094,0,0,0-.7406-.2031,4.1786,4.1786,0,1,0-1.413,8.2336,4.3317,4.3317,0,0,0,2.9926-.5764,16.2791,16.2791,0,0,0-1.0886,1.9079,3.8526,3.8526,0,0,0-2.3745-1.4122,3.7144,3.7144,0,1,0-1.256,7.3188,3.8658,3.8658,0,0,0,2.042-.2084,17.2023,17.2023,0,0,0,34.03,4.515A16.7693,16.7693,0,0,0,261.8287,153.8366Zm-12.8518-1.222a17.2709,17.2709,0,0,0-2.4622.9144,4.0524,4.0524,0,0,0,.6517-1.6,4,4,0,0,0,.0354-.5308A4.7891,4.7891,0,0,0,248.9769,152.6146Zm-7.4921,2.5016a4.4011,4.4011,0,0,0,.7407.2031,4.357,4.357,0,0,0,1.263.0139,16.8373,16.8373,0,0,0-2.1375,1.8788,3.5937,3.5937,0,0,0,.1338-2.0958Z"/><ellipse class="cls-9" cx="328.7994" cy="33.9021" rx="17.2439" ry="4.5639" transform="translate(205.7711 340.6958) rotate(-74.0355)"/><ellipse class="cls-9" cx="320.1448" cy="31.7297" rx="5.1772" ry="15.6937" transform="matrix(0.968, -0.2508, 0.2508, 0.968, 2.2738, 81.3031)"/><path class="cls-8" d="M225.0912,163.7778a4.1017,4.1017,0,0,0,1.2967-3.183,4.298,4.298,0,0,0-8.5815.4372,4.0721,4.0721,0,0,0,.8887,2.3344,17.6891,17.6891,0,0,0-1.977.3354,4.5351,4.5351,0,0,0,1.0647-3.1333,4.7756,4.7756,0,0,0-9.5351.4859,4.4912,4.4912,0,0,0,.1181.76,4.3509,4.3509,0,0,0-2.5019-.6382,4.2379,4.2379,0,0,0-4.0782,4.39,4.0438,4.0438,0,0,0,.3613,1.4507,4.4116,4.4116,0,0,0-.7672-.0359,4.1787,4.1787,0,1,0,.4252,8.3432,4.3322,4.3322,0,0,0,2.7936-1.218,16.2756,16.2756,0,0,0-.6442,2.1,3.8527,3.8527,0,0,0-2.6262-.8577,3.7144,3.7144,0,1,0,.3779,7.4162,3.865,3.865,0,0,0,1.9467-.6508,17.2023,17.2023,0,0,0,34.1921-3.05A16.7691,16.7691,0,0,0,225.0912,163.7778Zm-12.8073,1.6231a17.2873,17.2873,0,0,0-2.2021,1.4316,3.5541,3.5541,0,0,0,.2037-2.2294A4.7863,4.7863,0,0,0,212.2839,165.4009Zm-6.762,4.0822a3.97,3.97,0,0,0,2.0025-.2272,16.8287,16.8287,0,0,0-1.6739,2.3014,3.5941,3.5941,0,0,0-.3286-2.0742Z"/><path class="cls-9" d="M211.4326,186.44c47.9981-3.2508,90.1607-72.7759,109.1372-136.8018,3.2478-10.45,7.4256-10.156,10.6511.7074,18.55,65.9414,63.6145,142.7447,115.6214,142.6594,12.8462.3689,17.6645,10.0319,6.0178,25.0351-31.5478,39.8206-78.0874,81.8537-125.1616,77.62-47.1506-1.0539-91.6575-46.4384-121.5117-83.3491C195.0967,198.1966,199.4907,187.7184,211.4326,186.44Z"/><path class="cls-4" d="M382.84,198.9028c0-16.5154-12.4418-29.9037-27.79-29.9037-10.11,0-18.9573,5.811-23.82,14.4972-4.8624-8.6862-13.7095-14.4972-23.82-14.4972-15.3477,0-27.7895,13.3883-27.7895,29.9037,0,12.0416,6.6177,22.414,16.15,27.1536l34.9031,37.99L366.1284,226.33C375.9618,221.7237,382.84,211.18,382.84,198.9028Z"/><polygon class="cls-10" points="65.265 102.884 77.098 128.532 9 127.733 65.265 102.884"/><polygon class="cls-11" points="54.241 102.106 361.535 55.121 68.337 190.359 54.241 102.106"/><polygon class="cls-11" points="44.381 72.008 361.786 55.386 40.575 2.426 44.381 72.008"/><polygon class="cls-12" points="48.228 111.874 46.015 72.468 361.269 55.518 48.228 111.874"/><polygon class="cls-12" points="45.735 72.925 84.223 97.392 9.233 127.892 45.735 72.925"/><path class="cls-13" d="M434.0712,141.4989a14.3933,14.3933,0,0,0,11.6246,16.707"/></svg>
