<svg id="Layer_1" data-name="Layer 1" xmlns="http://www.w3.org/2000/svg" width="1920" height="1080" viewBox="0 0 1920 1080"><defs><style>.cls-1{fill:none;stroke:#998675;stroke-linecap:round;stroke-miterlimit:10;stroke-width:4px;}.cls-2{fill:#5955ff;}.cls-3{fill:#6a8fff;}.cls-4{fill:#55b4ff;}.cls-5{fill:#5fc6ff;}.cls-6{fill:#74ceff;}.cls-7{fill:#74ddff;}.cls-8{fill:#b4ebff;}.cls-9{fill:#fcee21;opacity:0.43;}</style></defs><title>BAGGRUND</title><path class="cls-1" d="M504.4962,690.5088c-1.5229,2.94,1.53,7.5447,6.8191,10.2841"/><path class="cls-2" d="M1921.3253-13.9646a53,53,0,0,0-53-52.9994,52.8017,52.8017,0,0,0-35.9765,14.0934,120.522,120.522,0,0,0-119.5245-105.0918,120.5379,120.5379,0,0,0-117.749,94.8291,92.8106,92.8106,0,0,0-71.75-33.8271,93.0157,93.0157,0,0,0-92.2157,80.8971,93.0188,93.0188,0,0,0-156.8377-7.4251,92.9473,92.9473,0,0,0-79.9463-45.4685,93.1936,93.1936,0,0,0-22.3715,2.7156,93.0042,93.0042,0,0,0-92.6293-84.7144,93.037,93.037,0,0,0-88.65,64.8258,92.8368,92.8368,0,0,0-73.35-35.8241,92.9069,92.9069,0,0,0-77.367,41.384A93.0612,93.0612,0,0,0,739.6285-65.5332a110.98,110.98,0,0,0-98.3044-59.4179A111.0178,111.0178,0,0,0,531.4252-29.5756a46.3522,46.3522,0,0,0-33.6-14.374,46.4352,46.4352,0,0,0-38.1131,19.8755,93.0073,93.0073,0,0,0-84.3873-53.8742,92.8564,92.8564,0,0,0-30.4262,5.0975,93.0069,93.0069,0,0,0-92.5746-84.0962,93.0081,93.0081,0,0,0-92.5577,83.9281A93.5177,93.5177,0,0,0,94-100C42.6375-99.9995,1.3248-58.3069,1.3254-6.9444c0,2.0163.0716,4.0156.1981,6h-.198l.0021,200,1920-.02-.0021-200h-1.6119A53.0941,53.0941,0,0,0,1921.3253-13.9646Z"/><path class="cls-3" d="M1921.3272,165.0354a52.9907,52.9907,0,0,0-88.977-38.906,120.5171,120.5171,0,0,0-237.2735-10.2627,93.0077,93.0077,0,0,0-163.9661,47.07,93.0188,93.0188,0,0,0-156.8377-7.4251,93.1043,93.1043,0,0,0-102.3178-42.7529A93.0115,93.0115,0,0,0,990.6763,92.87a93.0077,93.0077,0,0,0-150.7172,5.56A93.0612,93.0612,0,0,0,739.63,113.4668a111.0147,111.0147,0,0,0-208.2033,35.9576,46.47,46.47,0,0,0-71.7133,5.5015A93.0959,93.0959,0,0,0,344.9,106.1492a93.0017,93.0017,0,0,0-185.1323-.1681A92.9956,92.9956,0,0,0,1.3273,172.0556c0,2.0163.0715,4.0156.198,6h-.198l.0021,200,1920-.02-.0021-200h-1.6118A53.1038,53.1038,0,0,0,1921.3272,165.0354Z"/><path class="cls-4" d="M1921.3288,315.0354a52.9907,52.9907,0,0,0-88.977-38.906,120.5171,120.5171,0,0,0-237.2735-10.2627,93.0077,93.0077,0,0,0-163.9661,47.07,93.0188,93.0188,0,0,0-156.8377-7.4251,93.1044,93.1044,0,0,0-102.3179-42.7529A93.0115,93.0115,0,0,0,990.6779,242.87a93.0078,93.0078,0,0,0-150.7173,5.56,93.0612,93.0612,0,0,0-100.3287,15.0368,111.0147,111.0147,0,0,0-208.2032,35.9576,46.47,46.47,0,0,0-71.7133,5.5015,93.0959,93.0959,0,0,0-114.8135-48.7767,93.0017,93.0017,0,0,0-185.1323-.1681A92.9956,92.9956,0,0,0,1.3289,322.0556c0,2.0163.0715,4.0156.198,6h-.198l.0021,200,1920-.02-.0021-200h-1.6118A53.1038,53.1038,0,0,0,1921.3288,315.0354Z"/><path class="cls-5" d="M1921.33,424.0354a52.9906,52.9906,0,0,0-88.9769-38.906,120.5172,120.5172,0,0,0-237.2736-10.2627,93.0077,93.0077,0,0,0-163.966,47.07,93.0189,93.0189,0,0,0-156.8378-7.4251,93.1043,93.1043,0,0,0-102.3178-42.7529A93.0115,93.0115,0,0,0,990.679,351.87a93.0077,93.0077,0,0,0-150.7172,5.56,93.0612,93.0612,0,0,0-100.3287,15.0368A111.0147,111.0147,0,0,0,531.43,408.4244a46.4706,46.4706,0,0,0-71.7134,5.5015A93.0959,93.0959,0,0,0,344.903,365.1492a93.0017,93.0017,0,0,0-185.1323-.1681A92.9956,92.9956,0,0,0,1.33,431.0556c0,2.0163.0716,4.0156.1981,6H1.33l.0021,200,1920-.02-.0021-200h-1.6119A53.0941,53.0941,0,0,0,1921.33,424.0354Z"/><path class="cls-6" d="M1921.3318,602.0354a52.9907,52.9907,0,0,0-88.977-38.906,120.5171,120.5171,0,0,0-237.2735-10.2627,93.0077,93.0077,0,0,0-163.9661,47.07,93.0188,93.0188,0,0,0-156.8377-7.4251A93.1043,93.1043,0,0,0,1171.96,549.7587,93.0115,93.0115,0,0,0,990.6809,529.87a93.0077,93.0077,0,0,0-150.7172,5.56A93.0612,93.0612,0,0,0,739.635,550.4668a111.0147,111.0147,0,0,0-208.2033,35.9576,46.47,46.47,0,0,0-71.7133,5.5015,93.0959,93.0959,0,0,0-114.8135-48.7767,93.0017,93.0017,0,0,0-185.1323-.1681A92.9956,92.9956,0,0,0,1.3319,609.0556c0,2.0163.0716,4.0156.198,6h-.198l.0021,200,1920-.02-.0021-200H1919.72A53.099,53.099,0,0,0,1921.3318,602.0354Z"/><path class="cls-7" d="M1921.3336,775.0354a52.9906,52.9906,0,0,0-88.9769-38.906,120.5172,120.5172,0,0,0-237.2736-10.2627,93.0077,93.0077,0,0,0-163.9661,47.07,93.0188,93.0188,0,0,0-156.8377-7.4251,93.1043,93.1043,0,0,0-102.3178-42.7529A93.0115,93.0115,0,0,0,990.6827,702.87a93.0077,93.0077,0,0,0-150.7172,5.56,93.0612,93.0612,0,0,0-100.3287,15.0368,111.0147,111.0147,0,0,0-208.2032,35.9576,46.4706,46.4706,0,0,0-71.7134,5.5015,93.0959,93.0959,0,0,0-114.8135-48.7767,93.0017,93.0017,0,0,0-185.1323-.1681A92.9956,92.9956,0,0,0,1.3337,782.0556c0,2.0163.0716,4.0156.1981,6h-.198l.0021,200,1920-.02-.0021-200h-1.6119A53.0941,53.0941,0,0,0,1921.3336,775.0354Z"/><path class="cls-8" d="M1921.3348,887.0354a52.9907,52.9907,0,0,0-88.977-38.906,120.5171,120.5171,0,0,0-237.2735-10.2627,93.0077,93.0077,0,0,0-163.9661,47.07,93.0188,93.0188,0,0,0-156.8377-7.4251,93.1043,93.1043,0,0,0-102.3178-42.7529A93.0115,93.0115,0,0,0,990.6839,814.87a93.0077,93.0077,0,0,0-150.7172,5.56A93.0612,93.0612,0,0,0,739.638,835.4668a111.0147,111.0147,0,0,0-208.2033,35.9576,46.47,46.47,0,0,0-71.7133,5.5015,93.0959,93.0959,0,0,0-114.8135-48.7767,93.0017,93.0017,0,0,0-185.1323-.1681A92.9956,92.9956,0,0,0,1.3349,894.0556c0,2.0163.0716,4.0156.198,6h-.198L1,1080l1919-4,1.3349-175.9646h-1.6118A53.0941,53.0941,0,0,0,1921.3348,887.0354Z"/><line class="cls-9" y1="600" x2="157.1773" y2="635.8355"/></svg>
