<svg id="Layer_1" data-name="Layer 1" xmlns="http://www.w3.org/2000/svg" width="130" height="140" viewBox="0 0 130 140"><defs><style>.cls-1{fill:#fedccf;}.cls-2,.cls-5{fill:none;stroke:#998675;stroke-miterlimit:10;}.cls-2{stroke-linecap:square;stroke-width:3px;}.cls-3,.cls-6{fill:#c1272d;}.cls-3{opacity:0.27;}.cls-4{fill:#fff;}.cls-5{stroke-width:4px;}.cls-6{opacity:0.28;}</style></defs><title>HOVED</title><circle class="cls-1" cx="65.5" cy="75" r="55.5"/><path class="cls-2" d="M94.9557,22.4466A5.5274,5.5274,0,0,0,92.8082,14.93a6.9092,6.9092,0,0,0-9.3952,2.6843,8.6366,8.6366,0,0,0,3.3554,11.7441,10.7959,10.7959,0,0,0,14.68-4.1943,13.4948,13.4948,0,0,0-5.2429-18.35"/><ellipse class="cls-3" cx="47.5" cy="97.5" rx="18" ry="13.5" transform="matrix(0.5, -0.866, 0.866, 0.5, -60.6875, 89.8862)"/><ellipse class="cls-4" cx="55.3825" cy="55.7259" rx="13" ry="9.3677" transform="matrix(0.3914, -0.9202, 0.9202, 0.3914, -17.5731, 84.8818)"/><ellipse cx="55.1949" cy="57.5478" rx="11.25" ry="8.1067" transform="translate(-19.3639 85.8181) rotate(-66.9607)"/><ellipse class="cls-4" cx="55.6188" cy="62.0748" rx="3.25" ry="2.3419" transform="translate(-23.2718 88.9635) rotate(-66.9607)"/><ellipse class="cls-4" cx="75.7331" cy="70.167" rx="12.3286" ry="8.5633" transform="translate(-25.9146 88.2408) rotate(-52.8975)"/><ellipse cx="74.3847" cy="70.0389" rx="10.669" ry="7.4106" transform="translate(-26.3474 87.1145) rotate(-52.8975)"/><ellipse class="cls-4" cx="70.5669" cy="72.7185" rx="3.0821" ry="2.1408" transform="translate(-29.9993 85.1328) rotate(-52.8975)"/><path class="cls-5" d="M96.0712,45.6239a14.3933,14.3933,0,0,0,11.6246,16.707"/><path class="cls-5" d="M43.3125,26.0215c2.5926,4.98,11.9569,5.2372,20.9157.5736"/><ellipse class="cls-6" cx="32.5" cy="61.5" rx="5.5" ry="10" transform="translate(-32.6446 37.1138) rotate(-41.6227)"/><ellipse class="cls-6" cx="84.5" cy="89.5" rx="5.5" ry="10" transform="translate(-20.2211 154.1838) rotate(-78.3486)"/></svg>
