<svg id="Layer_1" data-name="Layer 1" xmlns="http://www.w3.org/2000/svg" width="770" height="240" viewBox="0 0 770 240"><defs><style>.cls-1{opacity:0.59;}.cls-2{fill:#0071bc;stroke:blue;stroke-miterlimit:10;}.cls-3{fill:#006837;}</style></defs><title>klode</title><g class="cls-1"><path class="cls-2" d="M10.2029,222.9565C89.2748,24.3457,366.4483-35.6707,543.7974,48.9057,641.3733,95.4392,721.7639,172.1976,754.9838,228.21"/><path class="cls-3" d="M142.8984,115.2369a4.766,4.766,0,0,0-1.056-1.8549c-3.6006-3.8163-13.1953-.6114-21.43,7.1581a40.325,40.325,0,0,0-6.36,7.6059,20.4828,20.4828,0,0,0-36.8331,16.9312,23.4983,23.4983,0,1,0,17.9568,40.5177q.4251-.4011.8248-.8185a70.9936,70.9936,0,0,0,9.4484,12.4358c13.8337,14.6625,30.7471,21.1721,37.7771,14.5394s1.5144-23.8957-12.3193-38.5582a74.5126,74.5126,0,0,0-6.7743-6.3484,26.0815,26.0815,0,0,0,8.1737-5.2831c5.7195-5.3962,8.39-12.45,7.4838-18.1728,5.835,3.4125,12.3993,3.5381,16.3959-.2326,5.2223-4.9271,4.079-14.62-2.5536-21.65A21.0282,21.0282,0,0,0,142.8984,115.2369Z"/><path class="cls-3" d="M564.42,219.4312a4.7659,4.7659,0,0,0,1.8252,1.1067c5.0025,1.5819,11.8252-5.8868,15.2388-16.6817a40.3258,40.3258,0,0,0,1.8555-9.7395,20.4828,20.4828,0,0,0,23.9394-32.7146,23.4983,23.4983,0,1,0-35.4035-26.6593c-.1175.3715-.2241.7439-.3223,1.1164a70.986,70.986,0,0,0-14.3056-6.2666c-19.22-6.078-37.1637-3.5348-40.0779,5.68s10.3047,21.6128,29.525,27.6908a74.5163,74.5163,0,0,0,9.0074,2.25,26.0821,26.0821,0,0,0-4.57,8.5928c-2.3708,7.4973-1.2716,14.9592,2.305,19.5178-6.7582-.1419-12.554,2.9426-14.2107,8.1815-2.1647,6.8456,3.5508,14.7574,12.766,17.6715A21.0275,21.0275,0,0,0,564.42,219.4312Z"/><path class="cls-3" d="M610.1972,132.1942a4.7655,4.7655,0,0,0,.5574-2.06c.1333-5.2451-8.9338-9.73-20.2519-10.018a40.3284,40.3284,0,0,0-9.8722.9169,20.4828,20.4828,0,0,0-38.0683-13.9336,23.4983,23.4983,0,1,0-15.8017,41.4058c.39.01.7769.0091,1.162,0a70.9839,70.9839,0,0,0-2.0557,15.4821c-.5124,20.1519,6.9047,36.6873,16.5666,36.933s17.91-15.8916,18.4221-36.0435a74.5448,74.5448,0,0,0-.3351-9.278,26.0791,26.0791,0,0,0,9.5228,2.0092c7.8607.2,14.7255-2.9246,18.1142-7.6246,1.7368,6.5327,6.307,11.2465,11.8,11.3861,7.1774.1825,13.195-7.5021,13.4406-17.1639A21.0265,21.0265,0,0,0,610.1972,132.1942Z"/><path class="cls-3" d="M387.947,60.5223a4.7647,4.7647,0,0,0,.5574-2.06c.1333-5.245-8.9338-9.73-20.2519-10.0179a40.3286,40.3286,0,0,0-9.8722.9168A20.4827,20.4827,0,0,0,320.312,35.4273,23.4983,23.4983,0,1,0,304.51,76.8331c.39.01.7769.0091,1.162,0a70.9831,70.9831,0,0,0-2.0557,15.4821c-.5124,20.1518,6.9047,36.6873,16.5666,36.933s17.91-15.8916,18.4221-36.0435a74.5256,74.5256,0,0,0-.3351-9.278,26.0791,26.0791,0,0,0,9.5228,2.0092c7.8607.2,14.7255-2.9246,18.1142-7.6246,1.7368,6.5327,6.307,11.2464,11.8,11.3861,7.1774.1825,13.195-7.5021,13.4406-17.1639A21.027,21.027,0,0,0,387.947,60.5223Z"/><path class="cls-3" d="M411.8206,105.1435a4.7637,4.7637,0,0,0,.5574-2.06c.1334-5.245-8.9338-9.73-20.2519-10.0179a40.3238,40.3238,0,0,0-9.8722.9168,20.4827,20.4827,0,0,0-38.0683-13.9335,23.4983,23.4983,0,1,0-15.8016,41.4058c.3895.01.7769.0091,1.162,0a70.9908,70.9908,0,0,0-2.0558,15.4822c-.5123,20.1518,6.9047,36.6873,16.5667,36.9329s17.91-15.8915,18.422-36.0434a74.5256,74.5256,0,0,0-.3351-9.278,26.0791,26.0791,0,0,0,9.5228,2.0092c7.8607.2,14.7256-2.9246,18.1142-7.6246,1.7369,6.5327,6.307,11.2464,11.8,11.3861,7.1773.1825,13.1949-7.5021,13.4405-17.164A21.0269,21.0269,0,0,0,411.8206,105.1435Z"/><path class="cls-3" d="M332.8538,93.3336a2.1693,2.1693,0,0,0,.3514-1.0877c.07-2.7723-5.7529-5.1693-13.0068-5.3537a31.0925,31.0925,0,0,0-6.3239.4565,9.0122,9.0122,0,0,0,.2708-1.9322c.1521-5.9825-5.6051-10.9818-12.859-11.1662-5.1078-.13-9.5854,2.1676-11.8471,5.6239a17.0738,17.0738,0,0,0-9.3767-2.991c-8.3153-.2114-15.1978,5.1766-15.3722,12.0346s6.4255,12.5888,14.7408,12.8c.25.0064.4979.007.7447.0034a31.2406,31.2406,0,0,0-1.2732,8.1787c-.2708,10.6517,4.5295,19.4142,10.7219,19.5717s11.4318-8.35,11.7026-19.0016a32.5775,32.5775,0,0,0-.2412-4.9057,19.89,19.89,0,0,0,6.1083,1.0893c5.038.1281,9.4283-1.504,11.5865-3.979a8.3952,8.3952,0,0,0,7.5943,6.0529c4.6.1169,8.4344-3.9283,8.5642-9.0353A9.7774,9.7774,0,0,0,332.8538,93.3336Z"/><path class="cls-3" d="M315.767,170.3649a4.5882,4.5882,0,0,0-.0305,1.9555c1.0072,4.7156,9.6163,6.8739,19.2288,4.8208a33.176,33.176,0,0,0,8.1352-2.8348,19.9421,19.9421,0,0,0,.4106,3.3589c2.1734,10.1758,11.728,16.7605,21.3405,14.7073A17.7058,17.7058,0,0,0,378.2,178.99a19.6285,19.6285,0,0,0,13.5176,2.0052c11.0191-2.3536,17.9324-13.7179,15.4409-25.3828s-13.4444-19.2132-24.4636-16.86q-.4962.1061-.9806.2371a68.9138,68.9138,0,0,0-1.57-14.2588c-3.87-18.1178-13.6591-31.3844-21.865-29.6317s-11.7209,17.861-7.8511,35.9789a72.4635,72.4635,0,0,0,2.2635,8.225,21.5387,21.5387,0,0,0-8.465.1479c-6.6761,1.426-11.8022,5.62-13.6584,10.5131-2.86-5.4849-7.7233-8.7655-12.3884-7.769-6.0958,1.302-9.5333,9.3994-7.6779,18.086A20.1439,20.1439,0,0,0,315.767,170.3649Z"/><path class="cls-3" d="M384.2625,164.6108a4.7649,4.7649,0,0,0,2.109.3285c5.2281-.4418,8.6934-9.9456,7.74-21.2272A40.3258,40.3258,0,0,0,392.1191,134,20.4827,20.4827,0,0,0,401.8,94.6345,23.4983,23.4983,0,1,0,358.913,83.4621c.0328.3883.076.7732.1271,1.155a70.9916,70.9916,0,0,0-15.6141-.348c-20.0868,1.6975-35.7106,10.8807-34.8968,20.5114s17.7572,16.0618,37.844,14.3643a74.522,74.522,0,0,0,9.1856-1.3491,26.0791,26.0791,0,0,0-.9543,9.6856c.6621,7.8353,4.52,14.3167,9.5623,17.17-6.3032,2.4418-10.4881,7.5006-10.0255,12.9757.6046,7.1542,8.9019,12.2941,18.5326,11.48A21.0266,21.0266,0,0,0,384.2625,164.6108Z"/><path class="cls-3" d="M219.64,169.91a4.9052,4.9052,0,0,0-.6243-.8239,4.6158,4.6158,0,0,0-6.5169-.3239,4.3548,4.3548,0,0,0-1.1813,1.91c-.3707-.4622-.7654-.9223-1.1918-1.3742-3.85-4.081-8.4429-6.0012-10.2578-4.2889-1.2779,1.2057-.832,3.892.8845,6.8-1.7529-.5631-3.2386-.4913-4.1339.3534-2.0805,1.9629-.189,7.3466,4.2248,12.0248s9.6785,6.8794,11.7589,4.9165a2.3437,2.3437,0,0,0,.1762-.1862c1.4323,1.86,3.1259,3.8467,5.0149,5.8489,6.8554,7.2662,13.6688,11.9716,15.2181,10.51s-2.7521-8.5371-9.6076-15.8033c-1.0891-1.1543-2.1768-2.2433-3.2429-3.2538a3.1654,3.1654,0,0,0,2.135-.8108c1.26-1.1892,1.2263-3.4038.123-5.6227,2.5109,2.05,4.8255,2.9979,5.7063,2.1669,1.1509-1.0858-.5807-4.79-3.8675-8.274A20.76,20.76,0,0,0,219.64,169.91Z"/><path class="cls-3" d="M221.6439,191.1228a3.375,3.375,0,0,1-.8258-.6338c-1.7843-1.8912-1.04-5.4912,1.6623-8.0408a9.0451,9.0451,0,0,1,2.7471-1.7964,15.2484,15.2484,0,0,1-1.33-1.2441c-3.85-4.081-4.7809-9.4562-2.0785-12.0058,1.9028-1.7953,5.099-1.7037,8.1683-.0718a6.33,6.33,0,0,1,1.7488-5.1969c3.0978-2.9226,9.1872-1.5,13.601,3.1786s5.4805,10.84,2.3827,13.7628q-.1395.1315-.2872.251a52.5179,52.5179,0,0,1,5.6778,5.2234c6.8554,7.2662,10.5428,14.921,8.2359,17.0975s-9.7345-1.95-16.59-9.2157c-1.0891-1.1543-2.0974-2.3182-3.0151-3.4687a6.0939,6.0939,0,0,1-1.6837,2.7921,6.5321,6.5321,0,0,1-7.0247,1.1208c1.7519,2.7665,2.1958,5.479.8843,6.7163-1.7136,1.6169-5.7674.1034-9.0543-3.38A14.48,14.48,0,0,1,221.6439,191.1228Z"/></g></svg>
