<svg id="Layer_1" data-name="Layer 1" xmlns="http://www.w3.org/2000/svg" width="210" height="220" viewBox="0 0 210 220"><defs><style>.cls-1{fill:#ffbfc2;}.cls-2{fill:#ff7f86;}.cls-3{fill:#c1272d;}</style></defs><title>PARAPLY</title><polygon class="cls-1" points="148.262 179.849 62.532 178.655 19.079 105.658 61.356 33.854 147.086 35.048 190.539 108.045 148.262 179.849"/><ellipse class="cls-2" cx="61.9672" cy="33.7863" rx="5.7602" ry="5.9564" transform="translate(8.4168 79.7624) rotate(-69.2485)"/><ellipse class="cls-2" cx="146.9708" cy="35.1115" rx="5.7602" ry="5.9564" transform="translate(62.0631 160.1071) rotate(-69.2485)"/><ellipse class="cls-2" cx="190.0669" cy="107.5554" rx="5.7602" ry="5.9564" transform="matrix(0.3543, -0.9351, 0.9351, 0.3543, 22.1454, 247.1834)"/><ellipse class="cls-2" cx="148.0532" cy="179.2718" rx="5.7602" ry="5.9564" transform="translate(-72.0461 254.2014) rotate(-69.2485)"/><ellipse class="cls-2" cx="62.3281" cy="178.4273" rx="5.7602" ry="5.9564" transform="matrix(0.3543, -0.9351, 0.9351, 0.3543, -126.6078, 173.4923)"/><ellipse class="cls-2" cx="18.7229" cy="105.2688" rx="5.7602" ry="5.9564" transform="translate(-86.3505 85.4787) rotate(-69.2485)"/><ellipse class="cls-2" cx="105.0634" cy="106.2302" rx="5.7602" ry="5.9564" transform="translate(-31.5009 166.8387) rotate(-69.2485)"/><rect class="cls-3" x="104.3511" y="23.5583" width="1" height="166.708" transform="translate(68.7425 -38.4155) rotate(30.489)"/><rect class="cls-3" x="104.3511" y="22.5583" width="1" height="166.708" transform="translate(212.2126 2.5456) rotate(90.7976)"/><rect class="cls-3" x="104.4662" y="22.1358" width="1.1962" height="167.2153" transform="translate(249.4322 142.8666) rotate(149.2362)"/></svg>
