<svg id="Layer_1" data-name="Layer 1" xmlns="http://www.w3.org/2000/svg" width="320" height="200" viewBox="0 0 320 200"><defs><style>.cls-1{fill:#ed1e79;opacity:0.35;}.cls-2{fill:red;opacity:0.31;}</style></defs><title>PLAY</title><path class="cls-1" d="M265.3468,28.9664a41.2848,41.2848,0,0,0-16.0448,3.2515c-4.7819-12.1172-13.5048-20.2291-23.4763-20.2291-11.106,0-20.6594,10.0656-24.947,24.5183-5.0164-8.7756-12.4062-14.3318-20.6542-14.3318-5.1729,0-10.01,2.1842-14.1354,5.9764C158.1056,13.3793,143.5984,3.5,127.0231,3.5c-22.5457,0-41.2573,18.2792-44.9341,42.29a42.051,42.051,0,0,0-24.9878-8.3345C31.9164,37.4552,11.5,60.2585,11.5,88.3879s20.4164,50.9327,45.6012,50.9327c1.3044,0,2.5922-.0756,3.8688-.1955,3.9286,17.5326,21.4565,30.7552,42.4925,30.7552a47.5778,47.5778,0,0,0,21.9779-5.2841c7.8611,15.3246,22.6374,25.6572,39.5837,25.6572,17.6277,0,32.9082-11.1789,40.498-27.5288a26.571,26.571,0,0,0,19.5436,8.8534c15.5307,0,28.1208-14.0621,28.1208-31.4085a34.4956,34.4956,0,0,0-2.1006-11.8923,41.2105,41.2105,0,0,0,14.2609,2.5547c25.1849,0,45.6012-22.8034,45.6012-50.9328S290.5317,28.9664,265.3468,28.9664Z"/><path class="cls-2" d="M111.3672,91.2461a20.83,20.83,0,0,1-.6729,5.5342,16.5438,16.5438,0,0,1-1.82,4.2988,14.0084,14.0084,0,0,1-2.6455,3.1846,15.1451,15.1451,0,0,1-3.1357,2.1572,14.2445,14.2445,0,0,1-3.3037,1.2187,14.0567,14.0567,0,0,1-3.1348.3829H78.668v-9.05H96.6543a8.31,8.31,0,0,0,2.7686-.7129,6.6,6.6,0,0,0,2.1259-1.5489,6.861,6.861,0,0,0,1.376-2.35,9.2489,9.2489,0,0,0,.4893-3.1152V87.14a13.3457,13.3457,0,0,0-.6426-3.1328,7.64,7.64,0,0,0-1.33-2.4365,6.031,6.031,0,0,0-2.0342-1.583,6.2741,6.2741,0,0,0-2.7529-.5742H78.73a3.0454,3.0454,0,0,0-2.417.9394,3.9884,3.9884,0,0,0-.8262,2.7149v37.206H67.5332V83.0674A14.13,14.13,0,0,1,68.65,77.15a11.7981,11.7981,0,0,1,2.7832-3.9326,10.6044,10.6044,0,0,1,3.625-2.1758,11.09,11.09,0,0,1,3.6094-.6787H96.6543a14.0187,14.0187,0,0,1,4.833.7832,13.2422,13.2422,0,0,1,6.5615,5.0986,19.3337,19.3337,0,0,1,1.8965,3.5684,18.9372,18.9372,0,0,1,1.0859,3.7588,20.5274,20.5274,0,0,1,.336,3.5673Z"/><path class="cls-2" d="M158.4434,120.2734H122.165a3.6739,3.6739,0,0,1-1.5908-.3476,3.9068,3.9068,0,0,1-1.27-.957,4.502,4.502,0,0,1-.8408-1.4454,5.214,5.214,0,0,1-.3057-1.8095V70.3633h7.9531v40.8613h32.3321Z"/><path class="cls-2" d="M207.3242,120.2734h-7.9531V108.0225h-27.958v12.2509H163.46V95.3184A29.5506,29.5506,0,0,1,165.1113,85.26a23.952,23.952,0,0,1,4.5889-7.9,20.5849,20.5849,0,0,1,15.6924-6.9961h17.9248a3.5888,3.5888,0,0,1,1.56.3486,3.9431,3.9431,0,0,1,1.2851.9746,4.5617,4.5617,0,0,1,.8565,1.461,5.1474,5.1474,0,0,1,.3056,1.7754ZM171.4131,98.9727h27.958v-19.56H185.3926q-.3676,0-1.5449.1211a14.117,14.117,0,0,0-2.7227.6094,15.9147,15.9147,0,0,0-3.2578,1.497,11.75,11.75,0,0,0-3.15,2.7842,14.7137,14.7137,0,0,0-2.3711,4.4375,19.6334,19.6334,0,0,0-.9326,6.4561Z"/><path class="cls-2" d="M258.3467,87.0693a20.3706,20.3706,0,0,1-.6885,5.5342,17.263,17.263,0,0,1-1.82,4.2988,13.4711,13.4711,0,0,1-2.6455,3.1846,16.3189,16.3189,0,0,1-3.1358,2.1748,13.5741,13.5741,0,0,1-3.288,1.2363,14.0567,14.0567,0,0,1-3.1348.3829h-3.2119v16.3925h-8.0147V103.8809h-3.1816a14.056,14.056,0,0,1-3.1348-.3829,13.82,13.82,0,0,1-3.3037-1.2363,15.71,15.71,0,0,1-3.1357-2.1748,14.0015,14.0015,0,0,1-2.6455-3.1846,16.8507,16.8507,0,0,1-1.835-4.3164,20.4145,20.4145,0,0,1-.6885-5.5166V70.3633h7.9531v16.706a9.6843,9.6843,0,0,0,.4893,3.1856,7.1975,7.1975,0,0,0,1.376,2.4189,5.9016,5.9016,0,0,0,2.1572,1.5479,7.15,7.15,0,0,0,2.8291.54h14.3467q1.1308-.2094,2.3242-.54a5.8687,5.8687,0,0,0,2.1719-1.1309,5.9729,5.9729,0,0,0,1.6211-2.2275,9.3509,9.3509,0,0,0,.6426-3.794V70.3633h7.9531Z"/></svg>
