<svg id="Layer_1" data-name="Layer 1" xmlns="http://www.w3.org/2000/svg" width="380" height="200" viewBox="0 0 380 200"><defs><style>.cls-1{fill:#ed1e79;opacity:0.46;}.cls-2{fill:red;opacity:0.31;}</style></defs><title>PRØV_IGEN</title><path class="cls-1" d="M315.8591,32.12a60.2936,60.2936,0,0,0-19.3007,3.1434c-5.7523-11.7143-16.2453-19.5565-28.24-19.5565-13.36,0-24.8517,9.7309-30.01,23.7031-6.0343-8.4838-14.9237-13.8553-24.8454-13.8553a28.46,28.46,0,0,0-17.0039,5.7777C186.8558,17.0508,169.4047,7.5,149.4658,7.5c-27.1208,0-49.63,17.6714-54.0524,40.8836a59.1337,59.1337,0,0,0-30.0585-8.0574C35.0594,40.3262,10.5,62.3714,10.5,89.5656s24.5594,49.2393,54.8549,49.2393c1.569,0,3.1182-.0731,4.6539-.189,4.7258,16.95,25.8106,29.7327,51.1153,29.7327A68.7951,68.7951,0,0,0,147.562,163.24c9.4563,14.8151,27.231,24.8041,47.6162,24.8041,21.2049,0,39.5862-10.8072,48.7162-26.6135a35.7821,35.7821,0,0,0,23.51,8.5591c18.6823,0,33.8272-13.5947,33.8272-30.3643a27.5837,27.5837,0,0,0-2.5268-11.4969,60.5009,60.5009,0,0,0,17.1548,2.47c30.2955,0,54.8549-22.0452,54.8549-49.2394S346.1546,32.12,315.8591,32.12Z"/><path class="cls-2" d="M155.7148,65.8037a10.85,10.85,0,0,1-.5341,3.53,9.587,9.587,0,0,1-1.4453,2.7431,9.7176,9.7176,0,0,1-2.1006,2.0313,12.3961,12.3961,0,0,1-2.4893,1.377,13.1611,13.1611,0,0,1-2.623.7773,13.72,13.72,0,0,1-2.4893.2441H129.7539V70.7334h14.2793a7.9207,7.9207,0,0,0,2.1982-.4551,5.3417,5.3417,0,0,0,1.6875-.9883,4.28,4.28,0,0,0,1.0928-1.499,4.8626,4.8626,0,0,0,.3887-1.9873V63.1826a7.07,7.07,0,0,0-.51-1.998A4.68,4.68,0,0,0,147.834,59.63a4.7694,4.7694,0,0,0-1.6152-1.0108,6.0314,6.0314,0,0,0-2.1856-.3662H129.8018a2.75,2.75,0,0,0-1.918.6,2.2272,2.2272,0,0,0-.6563,1.7325V84.3242h-6.3134V60.585A7.5109,7.5109,0,0,1,121.8,56.81a7.8122,7.8122,0,0,1,2.21-2.51,9.0119,9.0119,0,0,1,2.8779-1.3877,10.7211,10.7211,0,0,1,2.8662-.4336h14.2793a13.6142,13.6142,0,0,1,3.8379.5,11.5953,11.5953,0,0,1,2.999,1.332,9.6644,9.6644,0,0,1,2.21,1.9219,11.8012,11.8012,0,0,1,1.5058,2.2754,10.3238,10.3238,0,0,1,.8614,2.3984,10.5607,10.5607,0,0,1,.2675,2.2764Z"/><path class="cls-2" d="M195.9072,63.1826a10.8224,10.8224,0,0,1-.5342,3.5313,9.6022,9.6022,0,0,1-1.4443,2.7422,9.719,9.719,0,0,1-2.1006,2.0322,12.9558,12.9558,0,0,1-2.4892,1.3877,12.7925,12.7925,0,0,1-2.6231.789,13.7275,13.7275,0,0,1-2.4892.2442l13.1865,10.415H187.65l-13.1621-10.415h-4.542V68.1348h14.28A7.8772,7.8772,0,0,0,186.4,67.68a5.4747,5.4747,0,0,0,1.6992-.9883,4.2328,4.2328,0,0,0,1.1055-1.499,4.9194,4.9194,0,0,0,.3887-2.01V59.541a1.65,1.65,0,0,0-.1338-.7441.93.93,0,0,0-.34-.378,1.0479,1.0479,0,0,0-.4375-.1435c-.1543-.0147-.2959-.0225-.4248-.0225H167.4209V84.3242h-6.3145V55.3877a2.6917,2.6917,0,0,1,.2432-1.1318,2.9079,2.9079,0,0,1,.668-.9327,3.0253,3.0253,0,0,1,1.0078-.622,3.5088,3.5088,0,0,1,1.2627-.2227h23.97a8.2028,8.2028,0,0,1,3.57.7,7.1654,7.1654,0,0,1,2.3672,1.7539,6.6285,6.6285,0,0,1,1.3115,2.2764,7.3467,7.3467,0,0,1,.4,2.2871Z"/><path class="cls-2" d="M234.57,55.6768a12.7112,12.7112,0,0,1,4.2744,9.6826v6.0849a12.9528,12.9528,0,0,1-1.0927,5.3516,12.6593,12.6593,0,0,1-3.0362,4.22,13.9213,13.9213,0,0,1-4.6015,2.7647,16.5228,16.5228,0,0,1-5.793.9883h-8.5479a17.6343,17.6343,0,0,1-2.8291-.2227,18.4394,18.4394,0,0,1-2.6357-.6211l-2.3555,2.709H200.74l4.7364-5.4854a12.4938,12.4938,0,0,1-3.1573-4.2636,13.0236,13.0236,0,0,1-1.1172-5.44V65.3594a12.9155,12.9155,0,0,1,1.1045-5.3633,12.6754,12.6754,0,0,1,3.0479-4.22,13.98,13.98,0,0,1,4.6143-2.753,16.5988,16.5988,0,0,1,5.8046-.9882h8.5479a17.5314,17.5314,0,0,1,2.8174.2216,16.2315,16.2315,0,0,1,2.5986.6436l2.3555-2.7315h7.2129ZM207.5166,71.4443a7.7709,7.7709,0,0,0,.4971,2.8643,7.156,7.156,0,0,0,1.3965,2.2432l16.0527-18.6983a3.619,3.619,0,0,0-.5586-.0449h-9.1309a9.9133,9.9133,0,0,0-3.3632.5439,7.7449,7.7449,0,0,0-2.6114,1.5323,6.7423,6.7423,0,0,0-1.6875,2.3769,7.7715,7.7715,0,0,0-.5947,3.0977ZM232.53,65.3594a7.8486,7.8486,0,0,0-.4981-2.8321,6.8168,6.8168,0,0,0-1.3965-2.2539L214.583,78.95a3.829,3.829,0,0,0,.5713.0439h9.1191a9.8972,9.8972,0,0,0,3.3633-.5439,7.7186,7.7186,0,0,0,2.61-1.5322,6.7445,6.7445,0,0,0,1.6884-2.376,7.7871,7.7871,0,0,0,.5948-3.0977Z"/><path class="cls-2" d="M279.207,52.4785,262.7178,83.1914a2.9041,2.9041,0,0,1-1.1543,1.1436,3.3622,3.3622,0,0,1-1.6875.4336,3.3136,3.3136,0,0,1-1.6631-.4336,3.0742,3.0742,0,0,1-1.1787-1.1436L240.5693,52.4785h7.0664l12.24,22.94,12.2881-22.94Z"/><path class="cls-2" d="M140.7305,138.9H134.416V107.0547h6.3145Z"/><path class="cls-2" d="M182.4766,135.9912a2.75,2.75,0,0,1-.2432,1.1553,2.8264,2.8264,0,0,1-.668.9209,3.1168,3.1168,0,0,1-1.0078.6113,3.53,3.53,0,0,1-1.2627.2217H156.5156a10.5835,10.5835,0,0,1-3.874-.7774,9.4256,9.4256,0,0,1-1.8818-1.0322,7.2342,7.2342,0,0,1-2.6963-3.62,8.1143,8.1143,0,0,1-.4121-2.6758V115.1611a7.9015,7.9015,0,0,1,.206-1.7216,8.3442,8.3442,0,0,1,.6436-1.82,8.0408,8.0408,0,0,1,1.1416-1.7216,7.6482,7.6482,0,0,1,1.6875-1.4541,8.7052,8.7052,0,0,1,2.27-1.0108,10.3529,10.3529,0,0,1,2.915-.3779h25.669v5.7744h-25.669a2.7126,2.7126,0,0,0-1.8945.6,2.2867,2.2867,0,0,0-.6563,1.7764v15.59a2.2135,2.2135,0,0,0,.668,1.7207,2.6882,2.6882,0,0,0,1.8828.6114h19.6465v-7.24H159.3564v-5.8183h19.9385a3.3723,3.3723,0,0,1,1.2627.2334,3.1647,3.1647,0,0,1,1.0078.6328,2.9944,2.9944,0,0,1,.668.9218,2.6214,2.6214,0,0,1,.2432,1.1211Z"/><path class="cls-2" d="M220.5312,138.9H197.752a10.99,10.99,0,0,1-2.8653-.4219,8.7125,8.7125,0,0,1-2.8779-1.3877,7.9584,7.9584,0,0,1-2.21-2.51,7.4872,7.4872,0,0,1-.8867-3.7862v-20.831a2.6921,2.6921,0,0,1,.2432-1.1319,2.92,2.92,0,0,1,.667-.9326,3.0317,3.0317,0,0,1,1.0088-.6221,3.5028,3.5028,0,0,1,1.2627-.2226h28.4374v5.7744H195.2266v17.9658a2.229,2.229,0,0,0,.6552,1.7324,2.7522,2.7522,0,0,0,1.919.6h22.73ZM217.69,125.8867H197.752v-5.8183H217.69Z"/><path class="cls-2" d="M261.4277,136.4355a2.6416,2.6416,0,0,1-.2548,1.1543,2.9725,2.9725,0,0,1-.68.9219,3.1158,3.1158,0,0,1-1.0078.61,3.4433,3.4433,0,0,1-1.2383.2226,3.6661,3.6661,0,0,1-1.1778-.2,2.7775,2.7775,0,0,1-1.0566-.6435l-23.0713-22.03V138.9H226.627v-29.38a2.6037,2.6037,0,0,1,.5468-1.61,3.3261,3.3261,0,0,1,1.3965-1.0772,3.4939,3.4939,0,0,1,1.8457-.167,3.1026,3.1026,0,0,1,1.627.8106l23.0713,22.0078v-22.43h6.3134Z"/></svg>
