<svg id="Layer_1" data-name="Layer 1" xmlns="http://www.w3.org/2000/svg" width="210" height="220" viewBox="0 0 210 220"><defs><style>.cls-1{fill:#e6e6e6;}.cls-2{fill:#f2f2f2;}</style></defs><title>PUDE</title><path class="cls-1" d="M186.5479,177.4376H23.1843C-14.0263,192.9,7.05,180.2015,7.05,163.2635L13.1,83.3735C25.2011,36.9858-10.0935,27.966,31.2516,42.14L179.489,43.4285C203.59,34.4087,209,35.6973,199.6573,56.314l2.0169,104.3724C201.6742,177.6244,225.7754,192.9,186.5479,177.4376Z"/><ellipse class="cls-1" cx="25.5579" cy="111.0773" rx="23.3243" ry="62.4946"/><path class="cls-2" d="M8.5375,111.2067c0,28.1075,10.2773,59.3515,15.2221,50.8932,7.611-13.0192,9.34-43.8486,8.5624-52.0768-1.9028-20.1206-3.8055-41.4247-8.5624-49.71C18.8731,51.8029,8.5375,83.0991,8.5375,111.2067Z"/></svg>
