<svg id="Layer_1" data-name="Layer 1" xmlns="http://www.w3.org/2000/svg" width="140" height="140" viewBox="0 0 140 140"><defs><style>.cls-1{opacity:0.49;}.cls-2{fill:#ed1e79;}</style></defs><title>SETTING_KNAP</title><g class="cls-1"><path class="cls-2" d="M123.3887,58.8922h-2.9815a6.6305,6.6305,0,0,0-6.6108,6.6111V80.0715a6.6305,6.6305,0,0,0,6.6108,6.6111h2.9815A6.6306,6.6306,0,0,0,130,80.0715V65.5033a6.6306,6.6306,0,0,0-6.6113-6.6111Z"/></g><g class="cls-1"><path class="cls-2" d="M68.6572,54.3773c11.86,0,21.5093,8.2587,21.5093,18.41s-9.6489,18.41-21.5093,18.41-21.5093-8.2588-21.5093-18.41,9.649-18.41,21.5093-18.41m0-19c-22.3725,0-40.5093,16.749-40.5093,37.41s18.1368,37.41,40.5093,37.41,40.5093-16.7491,40.5093-37.41-18.1362-37.41-40.5093-37.41Z"/></g><g class="cls-1"><path class="cls-2" d="M74.0156,14H57.1265a6.6211,6.6211,0,0,0-6.6016,6.6017v1.7605a6.6212,6.6212,0,0,0,6.6016,6.6019H74.0156a6.6212,6.6212,0,0,0,6.6016-6.6019V20.6017A6.6211,6.6211,0,0,0,74.0156,14Z"/></g><g class="cls-1"><path class="cls-2" d="M77.1021,118.0359H60.2129a6.6211,6.6211,0,0,0-6.6016,6.6018v1.7605A6.6211,6.6211,0,0,0,60.2129,133H77.1021a6.6211,6.6211,0,0,0,6.6015-6.6018v-1.7605a6.6211,6.6211,0,0,0-6.6015-6.6018Z"/></g><g class="cls-1"><path class="cls-2" d="M14.5928,61.03H11.6113A6.6307,6.6307,0,0,0,5,67.6411V82.2092A6.6307,6.6307,0,0,0,11.6113,88.82h2.9815a6.6306,6.6306,0,0,0,6.6108-6.6112V67.6411A6.6306,6.6306,0,0,0,14.5928,61.03Z"/></g><g class="cls-1"><path class="cls-2" d="M104.6421,23.1337A6.8269,6.8269,0,0,0,100.0044,24.9l-2.1826,2.0154a5.7507,5.7507,0,0,0,0,8.5658l12.0034,11.0851a6.9708,6.9708,0,0,0,9.2754,0l2.1826-2.0156a5.75,5.75,0,0,0,0-8.5656L109.28,24.9a6.8271,6.8271,0,0,0-4.6377-1.7667Z"/></g><g class="cls-1"><path class="cls-2" d="M23.6235,97.9541a6.8271,6.8271,0,0,0-4.6377,1.7667l-2.1826,2.0154a5.7513,5.7513,0,0,0,0,8.5657L28.8066,121.387a6.97,6.97,0,0,0,9.2754,0l2.1826-2.0155a5.7506,5.7506,0,0,0,0-8.5657L28.2612,99.7208a6.8269,6.8269,0,0,0-4.6377-1.7667Z"/></g><g class="cls-1"><path class="cls-2" d="M112.1479,99.3792a6.8267,6.8267,0,0,0-4.6376,1.7667L95.5068,112.231a5.7513,5.7513,0,0,0,0,8.5657l2.1827,2.0154a6.97,6.97,0,0,0,9.2753,0l12.0035-11.085a5.7507,5.7507,0,0,0,0-8.5657l-2.1827-2.0155a6.8267,6.8267,0,0,0-4.6377-1.7667Z"/></g><g class="cls-1"><path class="cls-2" d="M31.9014,25.2714a6.8269,6.8269,0,0,0-4.6377,1.7667L15.26,38.1232a5.7506,5.7506,0,0,0,0,8.5657l2.1821,2.0155a6.97,6.97,0,0,0,9.2754,0L38.7212,37.6193a5.7506,5.7506,0,0,0,0-8.5657l-2.1821-2.0155a6.8271,6.8271,0,0,0-4.6377-1.7667Z"/></g></svg>
