<svg id="Layer_1" data-name="Layer 1" xmlns="http://www.w3.org/2000/svg" width="1920" height="1080" viewBox="0 0 1920 1080"><defs><style>.cls-1,.cls-5{fill:none;stroke:#998675;stroke-linecap:round;stroke-miterlimit:10;}.cls-1{stroke-width:4px;}.cls-2{fill:#fcee21;opacity:0.43;}.cls-3{fill:#fed2be;}.cls-4{fill:#fedccf;}.cls-5{stroke-width:3px;}.cls-6,.cls-8{fill:#c1272d;}.cls-6{opacity:0.27;}.cls-7{fill:#fff;}.cls-8{opacity:0.28;}.cls-9{fill:#fededa;}.cls-10{fill:#fed2ff;}.cls-11{fill:gray;}.cls-12{fill:#e6e6e6;}.cls-13{fill:#b3b3b3;}.cls-14{fill:#ccc;}.cls-15{fill:red;opacity:0.49;}</style></defs><title>SETTINGS</title><path class="cls-1" d="M504.4962,693.5088c-1.5229,2.94,1.53,7.5447,6.8191,10.2841"/><line class="cls-2" y1="603" x2="157.1773" y2="638.8355"/><circle class="cls-3" cx="1754.8808" cy="256.0098" r="5.198"/><circle class="cls-4" cx="1776.7869" cy="292.7675" r="41.2131"/><path class="cls-5" d="M1797.9175,258.9405a4.1046,4.1046,0,0,0-1.5947-5.5814,5.1307,5.1307,0,0,0-6.9767,1.9933,6.4134,6.4134,0,0,0,2.4917,8.7209,8.0166,8.0166,0,0,0,10.9011-3.1146,10.021,10.021,0,0,0-3.8933-13.6264"/><ellipse class="cls-6" cx="1763.4205" cy="310.2181" rx="13.3664" ry="10.0248" transform="translate(613.0535 1682.276) rotate(-60)"/><ellipse class="cls-7" cx="1771.5016" cy="280.6826" rx="9.6535" ry="6.9562" transform="translate(819.9075 1801.0343) rotate(-66.9607)"/><ellipse cx="1771.3623" cy="282.0356" rx="8.354" ry="6.0198" transform="translate(818.5777 1801.7296) rotate(-66.9607)"/><ellipse class="cls-7" cx="1771.6771" cy="285.3972" rx="2.4134" ry="1.7391" transform="translate(815.6758 1804.0653) rotate(-66.9607)"/><ellipse class="cls-7" cx="1786.6135" cy="291.4063" rx="9.1549" ry="6.3589" transform="translate(476.4381 1540.5444) rotate(-52.8975)"/><ellipse cx="1785.6122" cy="291.3112" rx="7.9225" ry="5.5029" transform="translate(476.1167 1539.708) rotate(-52.8975)"/><ellipse class="cls-7" cx="1782.7772" cy="293.301" rx="2.2887" ry="1.5897" transform="translate(473.4049 1538.2364) rotate(-52.8975)"/><path class="cls-1" d="M1763.2812,263.8229c1.9253,3.6983,8.879,3.889,15.5316.4259"/><ellipse class="cls-8" cx="1754.5095" cy="284.9704" rx="4.0842" ry="7.4258" transform="translate(253.6683 1237.3292) rotate(-41.6227)"/><ellipse class="cls-8" cx="1793.1236" cy="305.7626" rx="4.0842" ry="7.4258" transform="translate(1131.5296 2000.1877) rotate(-78.3486)"/><path class="cls-9" d="M1623.8287,284.3366a4.1015,4.1015,0,0,0,1.9625-2.8216,4.298,4.298,0,0,0-8.4689-1.4533,4.0725,4.0725,0,0,0,.3557,2.4723,17.7109,17.7109,0,0,0-2.0024-.1059,4.5344,4.5344,0,0,0,1.7252-2.8239,4.7756,4.7756,0,0,0-9.41-1.6148,4.5055,4.5055,0,0,0-.0513.7671,4.35,4.35,0,0,0-2.3012-1.1708,4.2379,4.2379,0,0,0-4.9409,3.39,4.0437,4.0437,0,0,0,.0346,1.4947,4.4094,4.4094,0,0,0-.7406-.2031,4.1786,4.1786,0,1,0-1.413,8.2336,4.3317,4.3317,0,0,0,2.9926-.5764,16.2791,16.2791,0,0,0-1.0886,1.9079,3.8526,3.8526,0,0,0-2.3745-1.4122,3.7144,3.7144,0,1,0-1.256,7.3188,3.8658,3.8658,0,0,0,2.042-.2084,17.2023,17.2023,0,0,0,34.03,4.515A16.7693,16.7693,0,0,0,1623.8287,284.3366Zm-12.8518-1.222a17.2709,17.2709,0,0,0-2.4622.9144,4.0524,4.0524,0,0,0,.6517-1.6,4,4,0,0,0,.0354-.5308A4.7891,4.7891,0,0,0,1610.9769,283.1146Zm-7.4921,2.5016a4.4011,4.4011,0,0,0,.7407.2031,4.357,4.357,0,0,0,1.263.0139,16.8373,16.8373,0,0,0-2.1375,1.8788,3.5937,3.5937,0,0,0,.1338-2.0958Z"/><ellipse class="cls-10" cx="1690.7994" cy="164.4021" rx="17.2439" ry="4.5639" transform="translate(1067.6966 1744.7733) rotate(-74.0355)"/><ellipse class="cls-10" cx="1682.1448" cy="162.2297" rx="5.1772" ry="15.6937" transform="translate(13.0732 427.0496) rotate(-14.5243)"/><path class="cls-9" d="M1587.0912,294.2778a4.1017,4.1017,0,0,0,1.2967-3.183,4.298,4.298,0,0,0-8.5815.4372,4.0721,4.0721,0,0,0,.8887,2.3344,17.6891,17.6891,0,0,0-1.977.3354,4.5351,4.5351,0,0,0,1.0647-3.1333,4.7756,4.7756,0,0,0-9.5351.4859,4.4912,4.4912,0,0,0,.1181.76,4.3509,4.3509,0,0,0-2.5019-.6382,4.2379,4.2379,0,0,0-4.0782,4.39,4.0438,4.0438,0,0,0,.3613,1.4507,4.4116,4.4116,0,0,0-.7672-.0359,4.1787,4.1787,0,1,0,.4252,8.3432,4.3322,4.3322,0,0,0,2.7936-1.218,16.2756,16.2756,0,0,0-.6442,2.1,3.8527,3.8527,0,0,0-2.6262-.8577,3.7144,3.7144,0,1,0,.3779,7.4162,3.865,3.865,0,0,0,1.9467-.6508,17.2023,17.2023,0,0,0,34.1921-3.05A16.7691,16.7691,0,0,0,1587.0912,294.2778Zm-12.8073,1.6231a17.2873,17.2873,0,0,0-2.2021,1.4316,3.5541,3.5541,0,0,0,.2037-2.2294A4.7863,4.7863,0,0,0,1574.2839,295.9009Zm-6.762,4.0822a3.97,3.97,0,0,0,2.0025-.2272,16.8287,16.8287,0,0,0-1.6739,2.3014,3.5941,3.5941,0,0,0-.3286-2.0742Z"/><path class="cls-10" d="M1573.4321,316.94c47.9995-3.251,90.1558-72.7745,109.1382-136.8018,3.2412-10.4458,7.4229-10.1606,10.6514.7076,18.5566,65.9414,63.6113,142.7452,115.6221,142.6586,12.8359.372,17.666,10.03,6.0156,25.0354-31.5469,39.82-78.086,81.8528-125.1563,77.6207-47.1494-1.0527-91.6533-46.437-121.5166-83.349C1557.0957,328.697,1561.4922,318.2185,1573.4321,316.94Z"/><path class="cls-6" d="M1744.84,329.4028c0-16.5154-12.4418-29.9037-27.79-29.9037-10.11,0-18.9573,5.811-23.82,14.4972-4.8624-8.6862-13.71-14.4972-23.82-14.4972-15.3477,0-27.79,13.3883-27.79,29.9037,0,12.0416,6.6177,22.414,16.15,27.1536l34.9031,37.99,35.4538-37.7173C1737.9618,352.2237,1744.84,341.68,1744.84,329.4028Z"/><polygon class="cls-11" points="1427.265 233.384 1439.098 259.032 1371 258.233 1427.265 233.384"/><polygon class="cls-12" points="1416.241 232.606 1723.535 185.621 1430.337 320.859 1416.241 232.606"/><polygon class="cls-12" points="1406.381 202.508 1723.786 185.886 1402.575 132.926 1406.381 202.508"/><polygon class="cls-13" points="1410.228 242.374 1408.015 202.968 1723.269 186.018 1410.228 242.374"/><polygon class="cls-13" points="1407.735 203.425 1446.223 227.892 1371.233 258.392 1407.735 203.425"/><path class="cls-1" d="M1798.0712,277.1239C1796.933,283.8544,1800.4828,290.067,1806,291"/><circle class="cls-3" cx="1817.8808" cy="291.0098" r="5.198"/><ellipse class="cls-14" cx="381.0742" cy="456.5935" rx="254.0742" ry="236.2896"/><ellipse class="cls-14" cx="964.8691" cy="434.007" rx="254.0742" ry="236.2896"/><ellipse class="cls-14" cx="1271.5671" cy="353.2168" rx="171.0273" ry="179.8233"/><ellipse class="cls-14" cx="711.6172" cy="329.7616" rx="254.0742" ry="236.2896"/><ellipse class="cls-14" cx="729.7067" cy="751.9554" rx="227.4769" ry="263.9172" transform="translate(-270.9185 441.0566) rotate(-28.6)"/><ellipse class="cls-14" cx="383.5409" cy="727.6315" rx="167.7383" ry="156.3681"/><ellipse class="cls-14" cx="966.5136" cy="804.9468" rx="145.5376" ry="153.762"/><ellipse class="cls-14" cx="1380.9258" cy="574.7383" rx="254.0742" ry="236.2896"/><ellipse class="cls-14" cx="1127.6739" cy="723.288" rx="145.5376" ry="153.762"/><ellipse class="cls-7" cx="386.3784" cy="462.2648" rx="251.3784" ry="222.7177"/><ellipse class="cls-7" cx="963.9793" cy="440.9756" rx="251.3784" ry="222.7177"/><ellipse class="cls-7" cx="1267.4231" cy="364.8258" rx="169.2126" ry="169.4948"/><ellipse class="cls-7" cx="713.4144" cy="342.7177" rx="251.3784" ry="222.7177"/><ellipse class="cls-7" cx="731.3119" cy="740.6619" rx="221.8369" ry="252.3766" transform="translate(-300.6713 604.9863) rotate(-37.8742)"/><ellipse class="cls-7" cx="388.819" cy="717.7351" rx="165.9586" ry="147.3867"/><ellipse class="cls-7" cx="965.6063" cy="790.6097" rx="143.9935" ry="144.9303"/><ellipse class="cls-7" cx="1375.6216" cy="573.6236" rx="251.3784" ry="222.7177"/><ellipse class="cls-7" cx="1125.0567" cy="713.641" rx="143.9935" ry="144.9303"/><path class="cls-15" d="M735.9766,345.73a11.7222,11.7222,0,0,1-.5928,3.8545,11.1371,11.1371,0,0,1-1.5674,3.0195,9.9706,9.9706,0,0,1-2.2832,2.2266,14.318,14.318,0,0,1-2.709,1.5039,14.8655,14.8655,0,0,1-5.5693,1.1406H692.7266v-7.2363h30.5283a4.8847,4.8847,0,0,0,3.5459-1.2246,4.3679,4.3679,0,0,0,1.2627-3.2842,4.8844,4.8844,0,0,0-.335-1.8369,4.19,4.19,0,0,0-.959-1.4473,4.2583,4.2583,0,0,0-1.5215-.9463,5.6794,5.6794,0,0,0-1.9931-.334H705.0537a15.3292,15.3292,0,0,1-4.14-.6259,12.8355,12.8355,0,0,1-4.1241-2.0176,11.2409,11.2409,0,0,1-3.166-3.6465,12.6266,12.6266,0,0,1,0-11.0078,11.4319,11.4319,0,0,1,3.166-3.6455,12.6926,12.6926,0,0,1,4.1241-2.0322,15.33,15.33,0,0,1,4.14-.626H731.99V324.8H705.0537a4.771,4.771,0,0,0-3.5156,1.2529,4.4514,4.4514,0,0,0-1.2637,3.3116,4.3493,4.3493,0,0,0,1.2637,3.2978,4.87,4.87,0,0,0,3.5156,1.2109h18.2617a15.17,15.17,0,0,1,2.709.32,14.4054,14.4054,0,0,1,2.8457.9043,13.9716,13.9716,0,0,1,2.6934,1.5449,10.852,10.852,0,0,1,2.2676,2.24,10.6285,10.6285,0,0,1,1.5673,3.0059A11.8684,11.8684,0,0,1,735.9766,345.73Z"/><path class="cls-15" d="M781.9971,357.4746h-28.55a13.7486,13.7486,0,0,1-3.5918-.5293,10.892,10.892,0,0,1-3.6065-1.7392,9.9552,9.9552,0,0,1-2.7695-3.1446,9.3878,9.3878,0,0,1-1.1113-4.7451V321.209a3.3807,3.3807,0,0,1,.3047-1.419,3.6706,3.6706,0,0,1,.8369-1.1689,3.7868,3.7868,0,0,1,1.2627-.7793,4.41,4.41,0,0,1,1.583-.2783h35.6416V324.8H750.2822v22.5166a2.7913,2.7913,0,0,0,.8213,2.17,3.443,3.443,0,0,0,2.4043.752h28.4893Zm-3.5616-16.31H753.4473v-7.292h24.9882Z"/><path class="cls-15" d="M829.082,324.8h-17.44v32.6748h-7.9131V324.8H786.2578v-7.2363H829.082Z"/><path class="cls-15" d="M874.3408,324.8H856.9v32.6748h-7.9131V324.8H831.5166v-7.2363h42.8242Z"/><path class="cls-15" d="M888.1279,357.4746h-7.9131V317.5635h7.9131Z"/><path class="cls-15" d="M940.9971,354.3848a3.31,3.31,0,0,1-.32,1.4472,3.73,3.73,0,0,1-.8516,1.1553,3.9089,3.9089,0,0,1-1.2637.7656,4.3158,4.3158,0,0,1-1.5517.2783,4.64,4.64,0,0,1-1.4766-.25,3.5075,3.5075,0,0,1-1.3242-.8076l-28.9141-27.6093v28.11h-7.914V320.6523a3.2672,3.2672,0,0,1,.6845-2.0175,4.1765,4.1765,0,0,1,1.751-1.35,4.3666,4.3666,0,0,1,2.3125-.209,3.8791,3.8791,0,0,1,2.0391,1.0156l28.915,27.582v-28.11h7.9141Z"/><path class="cls-15" d="M993.2568,353.8281a3.4568,3.4568,0,0,1-.3047,1.4473,3.54,3.54,0,0,1-.8369,1.1553,3.9091,3.9091,0,0,1-1.2636.7656,4.4071,4.4071,0,0,1-1.5821.2783H960.72a13.2659,13.2659,0,0,1-4.8545-.9746,11.7808,11.7808,0,0,1-2.3593-1.2939,9.0643,9.0643,0,0,1-3.378-4.5362,10.1542,10.1542,0,0,1-.5175-3.3535V327.7227a9.88,9.88,0,0,1,.2587-2.1573,10.3938,10.3938,0,0,1,.8067-2.2822,10.0733,10.0733,0,0,1,1.4306-2.1572,9.6009,9.6009,0,0,1,2.1153-1.8233,10.8883,10.8883,0,0,1,2.8457-1.2656,12.9776,12.9776,0,0,1,3.6523-.4736h32.1719V324.8H960.72a3.4031,3.4031,0,0,0-2.374.751,2.8706,2.8706,0,0,0-.8223,2.2265v19.5391a2.7716,2.7716,0,0,0,.8379,2.1563,3.3655,3.3655,0,0,0,2.3584.7656h24.6231V341.165H964.2812v-7.292H989.27a4.23,4.23,0,0,1,1.5821.292,3.9924,3.9924,0,0,1,1.2636.794,3.7529,3.7529,0,0,1,.8369,1.1543,3.3026,3.3026,0,0,1,.3047,1.4062Z"/><path class="cls-15" d="M1043.4463,345.73a11.7222,11.7222,0,0,1-.5928,3.8545,11.1343,11.1343,0,0,1-1.5674,3.0195,9.9706,9.9706,0,0,1-2.2832,2.2266,14.318,14.318,0,0,1-2.709,1.5039,14.8655,14.8655,0,0,1-5.5693,1.1406h-30.5283v-7.2363h30.5283a4.8847,4.8847,0,0,0,3.5459-1.2246,4.3679,4.3679,0,0,0,1.2627-3.2842,4.8824,4.8824,0,0,0-.335-1.8369,4.19,4.19,0,0,0-.9589-1.4473,4.26,4.26,0,0,0-1.5215-.9463,5.68,5.68,0,0,0-1.9932-.334h-18.2012a15.33,15.33,0,0,1-4.14-.6259,12.834,12.834,0,0,1-4.124-2.0176,10.8122,10.8122,0,0,1-4.4287-9.1572,11.051,11.051,0,0,1,1.2627-5.4971,11.43,11.43,0,0,1,3.166-3.6455,12.6911,12.6911,0,0,1,4.124-2.0322,15.33,15.33,0,0,1,4.14-.626H1039.46V324.8h-26.9366a4.771,4.771,0,0,0-3.5156,1.2529,4.4514,4.4514,0,0,0-1.2637,3.3116,4.3493,4.3493,0,0,0,1.2637,3.2978,4.87,4.87,0,0,0,3.5156,1.2109h18.2618a15.17,15.17,0,0,1,2.7089.32,14.4033,14.4033,0,0,1,2.8457.9043,13.9686,13.9686,0,0,1,2.6934,1.5449,10.852,10.852,0,0,1,2.2676,2.24,10.6287,10.6287,0,0,1,1.5674,3.0059A11.8711,11.8711,0,0,1,1043.4463,345.73Z"/><path class="cls-15" d="M338.9541,593.73a11.7222,11.7222,0,0,1-.5928,3.8545,11.1343,11.1343,0,0,1-1.5674,3.02,9.9686,9.9686,0,0,1-2.2832,2.2266,14.3173,14.3173,0,0,1-2.7089,1.5039,14.8654,14.8654,0,0,1-5.5694,1.1406H295.7041v-7.2363h30.5283a4.8847,4.8847,0,0,0,3.5459-1.2246,4.3679,4.3679,0,0,0,1.2627-3.2842,4.8844,4.8844,0,0,0-.3349-1.8369,4.1916,4.1916,0,0,0-.959-1.4473,4.2592,4.2592,0,0,0-1.5215-.9463,5.68,5.68,0,0,0-1.9932-.334H308.0312a15.33,15.33,0,0,1-4.14-.6259,12.836,12.836,0,0,1-4.124-2.0176,10.8122,10.8122,0,0,1-4.4287-9.1572,11.051,11.051,0,0,1,1.2627-5.4971,11.4307,11.4307,0,0,1,3.166-3.6455,12.6931,12.6931,0,0,1,4.124-2.0322,15.33,15.33,0,0,1,4.14-.626h26.9366V572.8H308.0312a4.771,4.771,0,0,0-3.5156,1.2529,4.4518,4.4518,0,0,0-1.2636,3.3116,4.35,4.35,0,0,0,1.2636,3.2978,4.87,4.87,0,0,0,3.5156,1.2109H326.293a15.1715,15.1715,0,0,1,2.709.32,14.4075,14.4075,0,0,1,2.8457.9043,13.9708,13.9708,0,0,1,2.6933,1.5449,10.85,10.85,0,0,1,2.2676,2.24,10.6287,10.6287,0,0,1,1.5674,3.0059A11.8711,11.8711,0,0,1,338.9541,593.73Z"/><path class="cls-15" d="M380.44,595.3164a10.18,10.18,0,0,1-.5176,3.3535,9.469,9.469,0,0,1-1.37,2.6162,8.88,8.88,0,0,1-1.9776,1.92,11.7815,11.7815,0,0,1-2.3594,1.2939,12.9108,12.9108,0,0,1-2.496.7383,13.0429,13.0429,0,0,1-2.3887.2363H355.0557a13.7367,13.7367,0,0,1-3.5918-.5293,10.9062,10.9062,0,0,1-3.6075-1.7392,9.98,9.98,0,0,1-2.7695-3.1446,9.3981,9.3981,0,0,1-1.11-4.7451V585.52a9.34,9.34,0,0,1,1.11-4.7177,9.9945,9.9945,0,0,1,2.7695-3.1456,10.9454,10.9454,0,0,1,3.6075-1.7392,13.7749,13.7749,0,0,1,3.5918-.5283H369.33a12.0931,12.0931,0,0,1,5.1738,1.0019,10.1857,10.1857,0,0,1,3.44,2.5186,9.7425,9.7425,0,0,1,1.9023,3.2978,10.5306,10.5306,0,0,1,.5938,3.3125Zm-7.9141-9.7422a2.8154,2.8154,0,0,0-.8213-2.2265,3.489,3.489,0,0,0-2.374-.7227H355.1162a3.4914,3.4914,0,0,0-2.4043.7373,2.7477,2.7477,0,0,0-.8223,2.1572v9.7969a2.7918,2.7918,0,0,0,.8223,2.17,3.4413,3.4413,0,0,0,2.4043.752H369.33a3.376,3.376,0,0,0,2.4043-.752,2.8508,2.8508,0,0,0,.791-2.17Z"/><path class="cls-15" d="M423.1416,601.8281a3.4429,3.4429,0,0,1-.3047,1.4473A3.54,3.54,0,0,1,422,604.4307a3.9536,3.9536,0,0,1-1.248.7656,4.202,4.202,0,0,1-1.5372.2783H401.3184a17.1651,17.1651,0,0,1-3.12-.3066,15.6278,15.6278,0,0,1-3.2714-.9873,17.3617,17.3617,0,0,1-3.12-1.7256,11.5047,11.5047,0,0,1-2.6328-2.5332,12.5134,12.5134,0,0,1-1.8105-3.4375,13.1845,13.1845,0,0,1-.6846-4.3965V575.3887h7.9131v16.6992a5.8091,5.8091,0,0,0,1.9785,4.4805,6.3772,6.3772,0,0,0,2.1455,1.2382,7.9952,7.9952,0,0,0,2.6631.4317h13.8486v-22.85h7.9141Z"/><path class="cls-15" d="M467.03,605.4746h-7.9131V588.7754a5.7962,5.7962,0,0,0-1.9785-4.4805,6.3944,6.3944,0,0,0-2.1455-1.2392,8.0248,8.0248,0,0,0-2.6631-.4307H438.4814v22.85h-7.914V578.9785a3.2838,3.2838,0,0,1,.3047-1.4053,3.4912,3.4912,0,0,1,.8525-1.1416,4.1244,4.1244,0,0,1,1.2783-.7656,4.3374,4.3374,0,0,1,1.5518-.2773h17.8359a17.384,17.384,0,0,1,3.15.3056,16.0075,16.0075,0,0,1,3.2871.9883,16.2409,16.2409,0,0,1,3.1045,1.7256,11.9263,11.9263,0,0,1,4.4287,5.97,13.4862,13.4862,0,0,1,.669,4.3975Z"/><path class="cls-15" d="M510.0674,595.3164a10.1808,10.1808,0,0,1-.5166,3.3535,9.469,9.469,0,0,1-1.37,2.6162,8.8845,8.8845,0,0,1-1.9786,1.92,11.8008,11.8008,0,0,1-2.3583,1.2939,13.2577,13.2577,0,0,1-4.8848.9746H484.6836a12.9793,12.9793,0,0,1-3.6524-.4726,10.9242,10.9242,0,0,1-2.8457-1.2666,9.3437,9.3437,0,0,1-2.1005-1.8233,10.4063,10.4063,0,0,1-2.2217-4.4394,9.9274,9.9274,0,0,1-.2588-2.1563V585.52a9.3294,9.3294,0,0,1,1.1113-4.7177,9.97,9.97,0,0,1,2.77-3.1456,10.9391,10.9391,0,0,1,3.6064-1.7392,13.7868,13.7868,0,0,1,3.5918-.5283H498.959v7.2363H484.7451a3.4944,3.4944,0,0,0-2.4053.7373,2.7471,2.7471,0,0,0-.8212,2.1572v9.74a2.8932,2.8932,0,0,0,.8066,2.2265,3.3335,3.3335,0,0,0,2.3584.752H498.959a3.376,3.376,0,0,0,2.4043-.752,2.8508,2.8508,0,0,0,.791-2.17V562.6689h7.9131Z"/><path class="cls-15" d="M573.2852,585.3516a10.3162,10.3162,0,0,1-.5791,3.2431,9.43,9.43,0,0,1-1.8711,3.2285,10.3377,10.3377,0,0,1-3.3789,2.4913,11.626,11.626,0,0,1-5.0674,1.0019H548.1133v-6.875h14.2754a3.3314,3.3314,0,0,0,2.4961-.9043,3.0823,3.0823,0,0,0,.8818-2.24,2.7163,2.7163,0,0,0-.9893-2.2266,3.6575,3.6575,0,0,0-2.3886-.8076H548.1133a3.3275,3.3275,0,0,0-2.4951.9043,3.083,3.083,0,0,0-.8828,2.2412v10.1025a2.7467,2.7467,0,0,0,.9892,2.2549,3.7471,3.7471,0,0,0,2.45.8067h14.2139v6.9023H548.1133a13.2387,13.2387,0,0,1-3.5449-.5293,10.9216,10.9216,0,0,1-3.5313-1.7109,9.7607,9.7607,0,0,1-2.7236-3.09,9.1577,9.1577,0,0,1-1.0957-4.6338V585.3516a10.3118,10.3118,0,0,1,.5781-3.2422,9.4262,9.4262,0,0,1,1.8721-3.2285,10.32,10.32,0,0,1,3.3779-2.49,11.6257,11.6257,0,0,1,5.0674-1.0019h14.2754a13.2886,13.2886,0,0,1,3.5459.5283,10.957,10.957,0,0,1,3.53,1.7119,9.7829,9.7829,0,0,1,2.7247,3.0889A9.1639,9.1639,0,0,1,573.2852,585.3516Z"/><path class="cls-15" d="M607.7383,569.5713h-17.836a3.542,3.542,0,0,0-2.4345.7373,2.75,2.75,0,0,0-.8223,2.1572v33.0088h-7.9131V572.4658a10.0342,10.0342,0,0,1,.5176-3.34,9.2557,9.2557,0,0,1,1.3848-2.6026,9.1627,9.1627,0,0,1,1.9931-1.92,11.7863,11.7863,0,0,1,2.3594-1.2949,13.0391,13.0391,0,0,1,2.4805-.7373,12.8,12.8,0,0,1,2.374-.2363h17.8965Zm0,13.0537H589.8418v-7.2363h17.8965Z"/><path class="cls-15" d="M642.04,569.5713H624.2041a3.5424,3.5424,0,0,0-2.4346.7373,2.75,2.75,0,0,0-.8222,2.1572v33.0088h-7.9131V572.4658a10.0342,10.0342,0,0,1,.5176-3.34,9.2581,9.2581,0,0,1,1.3847-2.6026,9.1609,9.1609,0,0,1,1.9932-1.92,11.7863,11.7863,0,0,1,2.3594-1.2949,13.04,13.04,0,0,1,2.48-.7373,12.8023,12.8023,0,0,1,2.3741-.2363H642.04Zm0,13.0537H624.1436v-7.2363H642.04Z"/><path class="cls-15" d="M682.49,585.3516a10.3133,10.3133,0,0,1-.5791,3.2431,9.4286,9.4286,0,0,1-1.8711,3.2285,10.3356,10.3356,0,0,1-3.3789,2.4913,11.6255,11.6255,0,0,1-5.0673,1.0019H657.3184v-6.875h14.2754a3.3312,3.3312,0,0,0,2.496-.9043,3.0823,3.0823,0,0,0,.8819-2.24,2.7163,2.7163,0,0,0-.9893-2.2266,3.6576,3.6576,0,0,0-2.3886-.8076H657.3184a3.3278,3.3278,0,0,0-2.4952.9043,3.0834,3.0834,0,0,0-.8828,2.2412v10.1025a2.7464,2.7464,0,0,0,.9893,2.2549,3.7471,3.7471,0,0,0,2.45.8067h14.2139v6.9023H657.3184a13.24,13.24,0,0,1-3.545-.5293,10.9211,10.9211,0,0,1-3.5312-1.7109,9.76,9.76,0,0,1-2.7236-3.09,9.1577,9.1577,0,0,1-1.0957-4.6338V585.3516a10.309,10.309,0,0,1,.5781-3.2422,9.4259,9.4259,0,0,1,1.872-3.2285,10.321,10.321,0,0,1,3.378-2.49,11.6257,11.6257,0,0,1,5.0674-1.0019h14.2754a13.2873,13.2873,0,0,1,3.5458.5283,10.9565,10.9565,0,0,1,3.53,1.7119,9.7814,9.7814,0,0,1,2.7246,3.0889A9.1629,9.1629,0,0,1,682.49,585.3516Z"/><path class="cls-15" d="M719.6826,605.4746h-21.457a13.7367,13.7367,0,0,1-3.5918-.5293,10.9057,10.9057,0,0,1-3.6074-1.7392,9.9788,9.9788,0,0,1-2.77-3.1446,9.3981,9.3981,0,0,1-1.11-4.7451V585.52a9.8156,9.8156,0,0,1,.2588-2.1718,10.4651,10.4651,0,0,1,2.2217-4.4248,9.0484,9.0484,0,0,1,2.1-1.81,11.2346,11.2346,0,0,1,2.8457-1.252,12.9854,12.9854,0,0,1,3.6533-.4726h21.457v7.2363h-21.457a3.4291,3.4291,0,0,0-2.3594.7227,2.8436,2.8436,0,0,0-.8066,2.2265v9.7422a2.7917,2.7917,0,0,0,.8222,2.17,3.4414,3.4414,0,0,0,2.4043.752h21.3965Z"/><path class="cls-15" d="M756.1465,582.625H742.3281v22.85h-8.0049v-22.85h-10.288v-7.2363h10.288v-9.8252h8.0049v9.8252h13.8184Z"/><path class="cls-15" d="M793.1572,595.3164a10.1776,10.1776,0,0,1-.5176,3.3535,9.4643,9.4643,0,0,1-1.3691,2.6162,8.9054,8.9054,0,0,1-1.9785,1.92,11.7815,11.7815,0,0,1-2.3594,1.2939,12.9025,12.9025,0,0,1-2.4951.7383,13.0607,13.0607,0,0,1-2.39.2363H760.62v-7.2363h21.3672a3.4912,3.4912,0,0,0,2.4346-.752,2.7913,2.7913,0,0,0,.8213-2.17q-.1524-2.8946-3.1953-2.8945H769.7822a10.6443,10.6443,0,0,1-4.4443-.836,9.0383,9.0383,0,0,1-2.9678-2.0869,7.79,7.79,0,0,1-1.6435-2.7,8.2786,8.2786,0,0,1-.502-2.6992,8.1254,8.1254,0,0,1,.9434-4.0771,8.3578,8.3578,0,0,1,2.374-2.6866,9.6518,9.6518,0,0,1,3.1045-1.4882,11.862,11.862,0,0,1,3.1357-.459h19.4483v7.2363H769.8428a2.9258,2.9258,0,0,0-.959.125,1.1242,1.1242,0,0,0-.5176.334.8821.8821,0,0,0-.1973.4453,3.55,3.55,0,0,0-.03.459,1.5208,1.5208,0,0,0,.1826.6953.9046.9046,0,0,0,.38.3623,1.303,1.303,0,0,0,.5176.125c.1923.01.3808.0146.5634.0146h12.2657a12.0915,12.0915,0,0,1,5.1738,1.002,10.1731,10.1731,0,0,1,3.4394,2.5186,9.7411,9.7411,0,0,1,1.9024,3.2978A10.53,10.53,0,0,1,793.1572,595.3164Z"/><path class="cls-15" d="M806.4883,579.0342a3.1585,3.1585,0,0,1-.3194,1.4053,3.7792,3.7792,0,0,1-.8525,1.1416,3.9512,3.9512,0,0,1-1.248.7646,4.0953,4.0953,0,0,1-1.5059.2793,4.1812,4.1812,0,0,1-1.5371-.2793,3.9294,3.9294,0,0,1-1.2481-.7646,3.5528,3.5528,0,0,1-.8369-1.1416,3.2853,3.2853,0,0,1-.3047-1.4053,3.2279,3.2279,0,0,1,.3047-1.378,3.5586,3.5586,0,0,1,.8369-1.1406,4.15,4.15,0,0,1,1.2481-.7793,4.0149,4.0149,0,0,1,1.5371-.2929,3.9331,3.9331,0,0,1,1.5059.2929,4.1742,4.1742,0,0,1,1.248.7793,3.786,3.786,0,0,1,.8525,1.1406A3.1039,3.1039,0,0,1,806.4883,579.0342Zm0,22.7939a3.16,3.16,0,0,1-.3194,1.4063,3.786,3.786,0,0,1-.8525,1.1406,3.9518,3.9518,0,0,1-1.248.7656,4.1131,4.1131,0,0,1-1.5059.2783,4.1994,4.1994,0,0,1-1.5371-.2783,3.93,3.93,0,0,1-1.2481-.7656,3.5586,3.5586,0,0,1-.8369-1.1406,3.2865,3.2865,0,0,1-.3047-1.4063,3.2227,3.2227,0,0,1,.3047-1.3769,3.5724,3.5724,0,0,1,.8369-1.1416,4.1675,4.1675,0,0,1,1.2481-.7793,4.0315,4.0315,0,0,1,1.5371-.292,3.9494,3.9494,0,0,1,1.5059.292,4.1922,4.1922,0,0,1,1.248.7793,3.8015,3.8015,0,0,1,.8525,1.1416A3.099,3.099,0,0,1,806.4883,601.8281Z"/><path class="cls-15" d="M661.79,474.4746h-7.9746V450.7061l-14.0312,22.5712a3.317,3.317,0,0,1-1.4453,1.3086,4.5536,4.5536,0,0,1-1.9942.4453,4.2911,4.2911,0,0,1-1.9326-.4453,3.3507,3.3507,0,0,1-1.415-1.3086l-14.0918-22.5712v23.7685h-7.9141V437.6523a3.3952,3.3952,0,0,1,.8067-2.2265,3.9281,3.9281,0,0,1,2.1152-1.3076,4.6,4.6,0,0,1,2.5117.1533,3.8509,3.8509,0,0,1,1.08.584,3.5092,3.5092,0,0,1,.8213.9043l18.0185,28.64,18.0186-28.64a3.8054,3.8054,0,0,1,1.9326-1.502,4.4818,4.4818,0,0,1,2.5723-.14,4,4,0,0,1,2.1,1.3076,3.36,3.36,0,0,1,.8222,2.2265Z"/><path class="cls-15" d="M705.9229,470.8281a3.4429,3.4429,0,0,1-.3047,1.4473,3.542,3.542,0,0,1-.837,1.1553,3.9514,3.9514,0,0,1-1.248.7656,4.2018,4.2018,0,0,1-1.5371.2783H684.1a17.1641,17.1641,0,0,1-3.12-.3066,15.6269,15.6269,0,0,1-3.2715-.9873,17.3609,17.3609,0,0,1-3.12-1.7256,11.5047,11.5047,0,0,1-2.6328-2.5332,12.5136,12.5136,0,0,1-1.8106-3.4375,13.1871,13.1871,0,0,1-.6845-4.3965V444.3887h7.913v16.6992a5.8087,5.8087,0,0,0,1.9786,4.4805,6.3772,6.3772,0,0,0,2.1455,1.2382,7.9948,7.9948,0,0,0,2.6631.4317h13.8486v-22.85h7.9141Z"/><path class="cls-15" d="M745.1553,464.3164a10.18,10.18,0,0,1-.5176,3.3535,9.467,9.467,0,0,1-1.3691,2.6162,8.9059,8.9059,0,0,1-1.9786,1.92,11.7808,11.7808,0,0,1-2.3593,1.2939,12.9034,12.9034,0,0,1-2.4952.7383,13.06,13.06,0,0,1-2.39.2363H712.6182v-7.2363h21.3672a3.4909,3.4909,0,0,0,2.4345-.752,2.7909,2.7909,0,0,0,.8213-2.17q-.1524-2.8945-3.1953-2.8945H721.78a10.6448,10.6448,0,0,1-4.4444-.836,9.0378,9.0378,0,0,1-2.9677-2.0869,7.79,7.79,0,0,1-1.6436-2.7,8.2783,8.2783,0,0,1-.5019-2.6992,8.1254,8.1254,0,0,1,.9433-4.0771,8.3578,8.3578,0,0,1,2.374-2.6866,9.6518,9.6518,0,0,1,3.1045-1.4882,11.8627,11.8627,0,0,1,3.1358-.459h19.4482v7.2363H721.8408a2.9262,2.9262,0,0,0-.959.125,1.1239,1.1239,0,0,0-.5175.334.88.88,0,0,0-.1973.4453,3.55,3.55,0,0,0-.03.459,1.5208,1.5208,0,0,0,.1826.6953.9052.9052,0,0,0,.38.3623,1.3034,1.3034,0,0,0,.5176.125c.1924.01.3809.0146.5635.0146h12.2656a12.0915,12.0915,0,0,1,5.1738,1.002,10.1745,10.1745,0,0,1,3.44,2.5186,9.7425,9.7425,0,0,1,1.9023,3.2978A10.5306,10.5306,0,0,1,745.1553,464.3164Z"/><path class="cls-15" d="M758.73,438.209h-7.9131v-6.54H758.73Zm0,36.2656h-7.9131V444.3887H758.73Z"/><path class="cls-15" d="M798.1758,474.4746h-21.457a13.7367,13.7367,0,0,1-3.5918-.5293,10.9062,10.9062,0,0,1-3.6075-1.7392,9.98,9.98,0,0,1-2.7695-3.1446,9.3981,9.3981,0,0,1-1.11-4.7451V454.52a9.8215,9.8215,0,0,1,.2588-2.1718,10.4681,10.4681,0,0,1,2.2217-4.4248,9.0484,9.0484,0,0,1,2.1-1.81,11.2362,11.2362,0,0,1,2.8457-1.252,12.9866,12.9866,0,0,1,3.6534-.4726h21.457v7.2363h-21.457a3.4291,3.4291,0,0,0-2.3594.7227,2.8437,2.8437,0,0,0-.8067,2.2265v9.7422a2.7914,2.7914,0,0,0,.8223,2.17,3.4413,3.4413,0,0,0,2.4043.752h21.3965Z"/><path class="cls-15" d="M812.5117,448.0342a3.1584,3.1584,0,0,1-.3193,1.4053,3.7811,3.7811,0,0,1-.8526,1.1416,3.949,3.949,0,0,1-1.248.7646,4.0949,4.0949,0,0,1-1.5059.2793,4.1816,4.1816,0,0,1-1.5371-.2793,3.929,3.929,0,0,1-1.248-.7646,3.55,3.55,0,0,1-.8369-1.1416,3.2838,3.2838,0,0,1-.3047-1.4053,3.2264,3.2264,0,0,1,.3047-1.378,3.5556,3.5556,0,0,1,.8369-1.1406,4.1492,4.1492,0,0,1,1.248-.7793,4.0153,4.0153,0,0,1,1.5371-.2929,3.9328,3.9328,0,0,1,1.5059.2929,4.1716,4.1716,0,0,1,1.248.7793,3.788,3.788,0,0,1,.8526,1.1406A3.1038,3.1038,0,0,1,812.5117,448.0342Zm0,22.7939a3.16,3.16,0,0,1-.3193,1.4063,3.788,3.788,0,0,1-.8526,1.1406,3.95,3.95,0,0,1-1.248.7656,4.1127,4.1127,0,0,1-1.5059.2783,4.2,4.2,0,0,1-1.5371-.2783,3.93,3.93,0,0,1-1.248-.7656,3.5556,3.5556,0,0,1-.8369-1.1406,3.285,3.285,0,0,1-.3047-1.4063,3.2212,3.2212,0,0,1,.3047-1.3769,3.5694,3.5694,0,0,1,.8369-1.1416,4.167,4.167,0,0,1,1.248-.7793,4.0318,4.0318,0,0,1,1.5371-.292,3.949,3.949,0,0,1,1.5059.292,4.19,4.19,0,0,1,1.248.7793,3.8034,3.8034,0,0,1,.8526,1.1416A3.0989,3.0989,0,0,1,812.5117,470.8281Z"/></svg>
