<svg id="Layer_1" data-name="Layer 1" xmlns="http://www.w3.org/2000/svg" width="1920" height="1080" viewBox="0 0 1920 1080"><defs><style>.cls-1{fill:#fed2be;}.cls-2{fill:#fedccf;}.cls-3,.cls-6{fill:none;stroke:#998675;stroke-linecap:round;stroke-miterlimit:10;}.cls-3{stroke-width:3px;}.cls-4,.cls-7{fill:#c1272d;}.cls-4{opacity:0.27;}.cls-5{fill:#fff;}.cls-6{stroke-width:4px;}.cls-7{opacity:0.28;}.cls-8{fill:#fededa;}.cls-9{fill:#fed2ff;}.cls-10{fill:gray;}.cls-11{fill:#e6e6e6;}.cls-12{fill:#b3b3b3;}.cls-13,.cls-14,.cls-15{fill:#fcee21;}.cls-14{opacity:0.57;}.cls-15{opacity:0.43;}.cls-16{fill:#fbb03b;opacity:0.32;}.cls-17{fill:#ccc;}.cls-18{fill:#f991f9;}</style></defs><title>TABT</title><circle class="cls-1" cx="1814.8808" cy="283.0098" r="5.198"/><circle class="cls-1" cx="1877.8808" cy="320.0098" r="5.198"/><circle class="cls-2" cx="1836.7869" cy="319.7675" r="41.2131"/><path class="cls-3" d="M1857.9175,285.9405a4.1046,4.1046,0,0,0-1.5947-5.5814,5.1307,5.1307,0,0,0-6.9767,1.9933,6.4134,6.4134,0,0,0,2.4917,8.7209,8.0166,8.0166,0,0,0,10.9011-3.1146,10.021,10.021,0,0,0-3.8933-13.6264"/><ellipse class="cls-4" cx="1823.4205" cy="337.2181" rx="13.3664" ry="10.0248" transform="matrix(0.5, -0.866, 0.866, 0.5, 619.6708, 1747.7375)"/><ellipse class="cls-5" cx="1831.5016" cy="307.6826" rx="9.6535" ry="6.9562" transform="translate(831.5793 1872.6817) rotate(-66.9607)"/><ellipse cx="1831.3623" cy="309.0356" rx="8.354" ry="6.0198" transform="translate(830.2496 1873.377) rotate(-66.9607)"/><ellipse class="cls-5" cx="1831.6771" cy="312.3972" rx="2.4134" ry="1.7391" transform="translate(827.3476 1875.7127) rotate(-66.9607)"/><ellipse class="cls-5" cx="1846.6135" cy="318.4063" rx="9.1549" ry="6.3589" transform="translate(478.7095 1599.1103) rotate(-52.8975)"/><ellipse cx="1845.6122" cy="318.3112" rx="7.9225" ry="5.5029" transform="translate(478.3881 1598.2739) rotate(-52.8975)"/><ellipse class="cls-5" cx="1842.7772" cy="320.301" rx="2.2887" ry="1.5897" transform="translate(475.6763 1596.8023) rotate(-52.8975)"/><path class="cls-6" d="M1823.2812,290.8229c1.9253,3.6983,8.879,3.889,15.5316.4259"/><ellipse class="cls-7" cx="1814.5095" cy="311.9704" rx="4.0842" ry="7.4258" transform="translate(250.8822 1283.9991) rotate(-41.6227)"/><ellipse class="cls-7" cx="1853.1236" cy="332.7626" rx="4.0842" ry="7.4258" transform="translate(1152.9686 2080.4986) rotate(-78.3486)"/><path class="cls-8" d="M1683.8287,311.3366a4.1015,4.1015,0,0,0,1.9625-2.8216,4.298,4.298,0,0,0-8.4689-1.4533,4.0725,4.0725,0,0,0,.3557,2.4723,17.7109,17.7109,0,0,0-2.0024-.1059,4.5344,4.5344,0,0,0,1.7252-2.8239,4.7756,4.7756,0,0,0-9.41-1.6148,4.5055,4.5055,0,0,0-.0513.7671,4.35,4.35,0,0,0-2.3012-1.1708,4.2379,4.2379,0,0,0-4.9409,3.39,4.0437,4.0437,0,0,0,.0346,1.4947,4.4094,4.4094,0,0,0-.7406-.2031,4.1786,4.1786,0,1,0-1.413,8.2336,4.3317,4.3317,0,0,0,2.9926-.5764,16.2791,16.2791,0,0,0-1.0886,1.9079,3.8526,3.8526,0,0,0-2.3745-1.4122,3.7144,3.7144,0,1,0-1.256,7.3188,3.8658,3.8658,0,0,0,2.042-.2084,17.2023,17.2023,0,0,0,34.03,4.515A16.7693,16.7693,0,0,0,1683.8287,311.3366Zm-12.8518-1.222a17.2709,17.2709,0,0,0-2.4622.9144,4.0524,4.0524,0,0,0,.6517-1.6,4,4,0,0,0,.0354-.5308A4.7891,4.7891,0,0,0,1670.9769,310.1146Zm-7.4921,2.5016a4.4011,4.4011,0,0,0,.7407.2031,4.357,4.357,0,0,0,1.263.0139,16.8373,16.8373,0,0,0-2.1375,1.8788,3.5937,3.5937,0,0,0,.1338-2.0958Z"/><ellipse class="cls-9" cx="1750.7994" cy="191.4021" rx="17.2439" ry="4.5639" transform="translate(1085.2354 1822.0331) rotate(-74.0355)"/><ellipse class="cls-9" cx="1742.1448" cy="189.2297" rx="5.1772" ry="15.6937" transform="translate(8.2194 442.9598) rotate(-14.5243)"/><path class="cls-8" d="M1647.0912,321.2778a4.1017,4.1017,0,0,0,1.2967-3.183,4.298,4.298,0,0,0-8.5815.4372,4.0721,4.0721,0,0,0,.8887,2.3344,17.6891,17.6891,0,0,0-1.977.3354,4.5351,4.5351,0,0,0,1.0647-3.1333,4.7756,4.7756,0,0,0-9.5351.4859,4.4912,4.4912,0,0,0,.1181.76,4.3509,4.3509,0,0,0-2.5019-.6382,4.2379,4.2379,0,0,0-4.0782,4.39,4.0438,4.0438,0,0,0,.3613,1.4507,4.4116,4.4116,0,0,0-.7672-.0359,4.1787,4.1787,0,1,0,.4252,8.3432,4.3322,4.3322,0,0,0,2.7936-1.218,16.2756,16.2756,0,0,0-.6442,2.1,3.8527,3.8527,0,0,0-2.6262-.8577,3.7144,3.7144,0,1,0,.3779,7.4162,3.865,3.865,0,0,0,1.9467-.6508,17.2023,17.2023,0,0,0,34.1921-3.05A16.7691,16.7691,0,0,0,1647.0912,321.2778Zm-12.8073,1.6231a17.2873,17.2873,0,0,0-2.2021,1.4316,3.5541,3.5541,0,0,0,.2037-2.2294A4.7863,4.7863,0,0,0,1634.2839,322.9009Zm-6.762,4.0822a3.97,3.97,0,0,0,2.0025-.2272,16.8287,16.8287,0,0,0-1.6739,2.3014,3.5941,3.5941,0,0,0-.3286-2.0742Z"/><path class="cls-9" d="M1633.4326,343.94c47.9981-3.2508,90.1607-72.7759,109.1372-136.8018,3.2478-10.45,7.4256-10.156,10.6511.7074,18.55,65.9414,63.6145,142.7447,115.6214,142.6594,12.8462.3689,17.6645,10.0319,6.0178,25.0351-31.5478,39.8206-78.0874,81.8537-125.1616,77.6205-47.1506-1.0539-91.6575-46.4384-121.5117-83.3491C1617.0967,355.6966,1621.4907,345.2184,1633.4326,343.94Z"/><path class="cls-4" d="M1804.84,356.4028c0-16.5154-12.4418-29.9037-27.79-29.9037-10.11,0-18.9573,5.811-23.82,14.4972-4.8624-8.6862-13.71-14.4972-23.82-14.4972-15.3477,0-27.79,13.3883-27.79,29.9037,0,12.0416,6.6177,22.414,16.15,27.1536l34.9031,37.99,35.4538-37.7173C1797.9618,379.2237,1804.84,368.68,1804.84,356.4028Z"/><polygon class="cls-10" points="1487.265 260.384 1499.098 286.032 1431 285.233 1487.265 260.384"/><polygon class="cls-11" points="1476.241 259.606 1783.535 212.621 1490.337 347.859 1476.241 259.606"/><polygon class="cls-11" points="1466.381 229.508 1783.786 212.886 1462.575 159.926 1466.381 229.508"/><polygon class="cls-12" points="1470.228 269.374 1468.015 229.968 1783.269 213.018 1470.228 269.374"/><polygon class="cls-12" points="1467.735 230.425 1506.223 254.892 1431.233 285.392 1467.735 230.425"/><polygon class="cls-13" points="135.022 77.296 142.217 82.74 151.048 80.89 147.785 88.272 153.041 95.197 143.829 94.315 138.247 100.446 135.816 92.518 127.11 89.382 134.82 85.365 135.022 77.296"/><polygon class="cls-13" points="1536.49 32.614 1546.072 40.76 1558.214 37.485 1553.428 49.115 1560.294 59.651 1547.755 58.693 1539.856 68.479 1536.893 56.257 1525.145 51.77 1535.853 45.174 1536.49 32.614"/><polygon class="cls-13" points="1237.022 44.296 1244.217 49.74 1253.048 47.89 1249.785 55.272 1255.041 62.197 1245.829 61.315 1240.247 67.446 1237.816 59.518 1229.11 56.382 1236.82 52.365 1237.022 44.296"/><polygon class="cls-13" points="1128.49 83.614 1138.072 91.76 1150.214 88.485 1145.428 100.115 1152.294 110.651 1139.755 109.693 1131.856 119.479 1128.893 107.257 1117.145 102.77 1127.853 96.174 1128.49 83.614"/><polygon class="cls-13" points="70.49 182.614 80.072 190.76 92.214 187.485 87.428 199.115 94.294 209.651 81.755 208.693 73.856 218.479 70.893 206.257 59.145 201.77 69.853 195.174 70.49 182.614"/><polygon class="cls-13" points="871.49 50.614 881.072 58.76 893.214 55.485 888.428 67.115 895.294 77.651 882.755 76.693 874.856 86.479 871.893 74.257 860.145 69.77 870.853 63.174 871.49 50.614"/><polygon class="cls-13" points="626.471 61.294 632.052 65.975 639.098 64.125 636.341 70.772 640.35 76.817 633.065 76.243 628.497 81.829 626.752 74.827 619.919 72.235 626.125 68.482 626.471 61.294"/><polygon class="cls-13" points="594.49 14.614 604.072 22.76 616.214 19.485 611.428 31.115 618.294 41.651 605.755 40.693 597.856 50.479 594.893 38.257 583.145 33.77 593.853 27.174 594.49 14.614"/><polygon class="cls-13" points="423.015 145.125 430.305 150.622 439.244 148.764 435.948 156.207 441.275 163.196 431.948 162.298 426.302 168.476 423.834 160.478 415.016 157.308 422.818 153.262 423.015 145.125"/><polygon class="cls-13" points="226.49 29.614 236.072 37.76 248.214 34.485 243.428 46.115 250.294 56.651 237.755 55.693 229.856 65.479 226.893 53.257 215.145 48.77 225.853 42.174 226.49 29.614"/><polygon class="cls-13" points="1182.943 -3.964 1193.383 5.041 1206.668 1.356 1201.389 14.288 1208.852 25.958 1195.149 24.945 1186.476 35.843 1183.286 22.285 1170.463 17.35 1182.194 9.984 1182.943 -3.964"/><polygon class="cls-13" points="1875.228 142.107 1881.562 147.594 1889.631 145.337 1886.417 153.229 1890.941 160.343 1882.621 159.734 1877.348 166.387 1875.42 158.119 1867.636 155.117 1874.765 150.616 1875.228 142.107"/><polygon class="cls-13" points="1770.49 14.614 1780.072 22.76 1792.214 19.485 1787.428 31.115 1794.294 41.651 1781.755 40.693 1773.856 50.479 1770.893 38.257 1759.145 33.77 1769.853 27.174 1770.49 14.614"/><circle class="cls-14" cx="240" cy="559" r="84"/><polygon class="cls-15" points="415.149 255.366 464.584 287.572 311.715 467.258 415.149 255.366"/><polygon class="cls-15" points="264.292 212.314 322.556 221.605 256.082 447.962 264.292 212.314"/><polygon class="cls-15" points="451.738 836.036 403.18 869.549 294.953 659.924 451.738 836.036"/><polygon class="cls-15" points="543.799 394.827 565.616 449.645 337.108 508.299 543.799 394.827"/><path class="cls-15" d="M580.591,537.4512l-1.2329,58.9871-233.322-34.883Z"/><polygon class="cls-15" points="105.522 249.675 162.098 232.938 199.711 465.835 105.522 249.675"/><polygon class="cls-15" points="547.904 698.378 519.762 750.234 328.405 612.254 547.904 698.378"/><polygon class="cls-15" points="0 568 0 536 122.525 563.044 0 568"/><polygon class="cls-15" points="0 737 0 684 152.864 618.206 0 737"/><polygon class="cls-15" points="124.814 877.627 70.626 854.289 190.739 651.24 124.814 877.627"/><polygon class="cls-15" points="276.31 900 217.31 899.853 247.892 665.929 276.31 900"/><polygon class="cls-15" points="2 412 2 359 163.356 491.867 2 412"/><path class="cls-6" d="M1858.2691,305.8535c-1.5046,2.95,1.5772,7.535,6.8833,10.2414"/><circle class="cls-16" cx="601.5" cy="32.5" r="20.5"/><circle class="cls-16" cx="428.5" cy="156.5" r="15.5"/><circle class="cls-16" cx="1544.5" cy="49.5" r="20.5"/><circle class="cls-16" cx="1242.5" cy="56.5" r="15.5"/><circle class="cls-16" cx="1190.5" cy="14.5" r="20.5"/><circle class="cls-16" cx="1136" cy="101" r="21"/><circle class="cls-16" cx="879" cy="68" r="22"/><circle class="cls-16" cx="630.5" cy="71.5" r="15.5"/><circle class="cls-16" cx="1879.5" cy="153.5" r="15.5"/><circle class="cls-16" cx="1777" cy="31" r="21"/><circle class="cls-16" cx="78" cy="200" r="25"/><circle class="cls-16" cx="141.5" cy="88.5" r="19.5"/><circle class="cls-16" cx="234" cy="47" r="21"/><ellipse class="cls-17" cx="432.0742" cy="440.5935" rx="254.0742" ry="236.2896"/><ellipse class="cls-17" cx="1015.8691" cy="418.007" rx="254.0742" ry="236.2896"/><ellipse class="cls-17" cx="1322.5671" cy="337.2168" rx="171.0273" ry="179.8233"/><ellipse class="cls-17" cx="762.6172" cy="313.7616" rx="254.0742" ry="236.2896"/><ellipse class="cls-17" cx="780.7067" cy="735.9554" rx="227.4769" ry="263.9172" transform="translate(-257.0365 463.5176) rotate(-28.6)"/><ellipse class="cls-17" cx="434.5409" cy="711.6315" rx="167.7383" ry="156.3681"/><ellipse class="cls-17" cx="1017.5136" cy="788.9468" rx="145.5376" ry="153.762"/><ellipse class="cls-17" cx="1431.9258" cy="558.7383" rx="254.0742" ry="236.2896"/><ellipse class="cls-17" cx="1178.6739" cy="707.288" rx="145.5376" ry="153.762"/><ellipse class="cls-5" cx="437.3784" cy="448.2648" rx="251.3784" ry="222.7177"/><ellipse class="cls-5" cx="1014.9793" cy="426.9756" rx="251.3784" ry="222.7177"/><ellipse class="cls-5" cx="1318.4231" cy="350.8258" rx="169.2126" ry="169.4948"/><ellipse class="cls-5" cx="764.4144" cy="328.7177" rx="251.3784" ry="222.7177"/><ellipse class="cls-5" cx="782.3119" cy="726.6619" rx="221.8369" ry="252.3766" transform="translate(-281.3337 633.3477) rotate(-37.8742)"/><ellipse class="cls-5" cx="439.819" cy="703.7351" rx="165.9586" ry="147.3867"/><ellipse class="cls-5" cx="1016.6063" cy="776.6097" rx="143.9935" ry="144.9303"/><ellipse class="cls-5" cx="1426.6216" cy="559.6236" rx="251.3784" ry="222.7177"/><ellipse class="cls-5" cx="1176.0567" cy="699.641" rx="143.9935" ry="144.9303"/><path class="cls-18" d="M117.4028,337.3715q19.3367-3.2019,38.7056-6.2071Q181.69,361.6819,207.2715,392.2q16.1082,19.2212,21.1069,29.8484c3.3526,7.0866,3.6113,13.5535.8721,19.4279-2.7495,5.8759-9.2349,9.7926-19.6465,11.7917-11.0044,2.1146-20.9058,2.2717-29.8179.4148a88.7834,88.7834,0,0,1-26.75-10.6136,142.7552,142.7552,0,0,1-26.7334-20.67q14.732-5.5866,29.6778-11.0114a90.4117,90.4117,0,0,0,11.3442,10.7878,33.93,33.93,0,0,0,9.438,5.04,13.9653,13.9653,0,0,0,6.998.3895c3.8882-.7271,5.46-2.6959,4.7412-5.9161q-1.0831-4.8268-10.1093-15.0894Q147.8972,371.9853,117.4028,337.3715Z"/><path class="cls-18" d="M263.4785,316.0406q19.3557-2.4505,38.7349-4.7062,22.6326,33.3132,45.2651,66.6265a72.92,72.92,0,0,1,9.5713,19.1355q2.87,9.23.856,16.75c-1.3282,5.0174-3.7149,8.7665-7.2071,11.2477-4.8418,3.4675-11.8281,5.9044-21.0439,7.3353a157.3769,157.3769,0,0,1-18.3228,1.6076,67.0757,67.0757,0,0,1-19.38-1.98,103.9187,103.9187,0,0,1-37.1709-19.4587A148.8878,148.8878,0,0,1,236.16,394.1485q-27.093-33.4541-54.1875-66.9079,19.3014-2.8615,38.6294-5.5281,26.2719,34.22,52.5429,68.44a45.0615,45.0615,0,0,0,16.1734,13.5441,30.6334,30.6334,0,0,0,18.1743,2.9944c6.0224-.903,9.4922-3.29,10.4814-7.1754.9839-3.8841-.7339-8.9272-5.2094-15.1377Q288.1217,350.2091,263.4785,316.0406Z"/><path class="cls-18" d="M328.12,308.407q19.4362-2.13,38.8955-4.0648,11.8806,19.4881,23.7622,38.9763,20.3365-2.173,40.6944-4.1226-10.9535-19.4239-21.9077-38.8478,19.5666-1.7283,39.1508-3.2593,28.8655,55.3137,57.7295,110.6271-17.1446,1.7373-34.2749,3.6478-12.6613-22.4531-25.3237-44.9061-19.7073,1.9981-39.3936,4.2126,13.733,22.5273,27.4678,45.0545-17.0353,2.0892-34.0512,4.35Q364.4937,364.2407,328.12,308.407Z"/><path class="cls-18" d="M556.8745,290.146q19.4985-.98,39.0088-1.7647,11.737,32.39,23.4741,64.78a53.3436,53.3436,0,0,1,3.4287,18.3783,29.4423,29.4423,0,0,1-4.2461,15.5937,25.8829,25.8829,0,0,1-10.3325,9.9658c-5.7046,2.9019-13.1577,4.7095-22.4409,5.44a164.5132,164.5132,0,0,1-18.085.3047,60.8226,60.8226,0,0,1-18.0278-3.0949,70.4721,70.4721,0,0,1-16.3574-8.4547,63.9975,63.9975,0,0,1-13.627-12.0447c-5.622-6.8261-9.8115-12.9494-12.4848-18.3654q-16.2327-32.87-32.4649-65.74,19.4656-1.3906,38.9488-2.5864,15.139,33.51,30.2788,67.0205a30.2381,30.2381,0,0,0,11.55,13.64,26.7967,26.7967,0,0,0,16.6064,3.9683c6.0684-.4454,10.127-2.434,12.2446-5.9763,2.1114-3.5412,1.9766-8.3342-.477-14.3936Q570.3734,323.481,556.8745,290.146Z"/><path class="cls-18" d="M704.22,285.5256q19.5381-.2443,39.083-.2939,6.2681,31.62,12.5352,63.2391a48.2426,48.2426,0,0,1,.3511,17.8262,31.7284,31.7284,0,0,1-6.793,14.8729,30.9731,30.9731,0,0,1-11.8789,9.2389c-6.127,2.596-13.7969,4.0776-23.1035,4.4569a167.6758,167.6758,0,0,1-17.937-.336,57.3848,57.3848,0,0,1-17.3218-3.61,59.8728,59.8728,0,0,1-14.8062-8.7209,51.8321,51.8321,0,0,1-11.5356-12.09c-4.458-6.7793-7.627-12.8309-9.395-18.148q-10.7725-32.2689-21.5459-64.5381,19.5183-.6551,39.0468-1.1155,9.5464,32.839,19.0923,65.6782A24.4838,24.4838,0,0,0,689.23,365.54a24.7554,24.7554,0,0,0,15.7954,4.4076c6.082-.2167,10.4267-1.99,13.1064-5.33,2.67-3.3387,3.3247-7.9627,1.8911-13.8883Q712.1217,318.1275,704.22,285.5256Z"/><path class="cls-18" d="M851.7881,286.4566q19.5564.491,39.1152,1.1769.7919,30.6429,1.583,61.2861a46.2651,46.2651,0,0,1-2.7275,17.1583,36.0351,36.0351,0,0,1-9.3306,14.0569,37.4659,37.4659,0,0,1-13.4131,8.4548c-6.5395,2.2745-14.4243,3.4225-23.7422,3.4513a170.3181,170.3181,0,0,1-17.7705-.97,53.713,53.713,0,0,1-16.5966-4.0975,50.0322,50.0322,0,0,1-13.24-8.9277,41.4734,41.4734,0,0,1-9.4306-12.0556c-3.2891-6.6887-5.4229-12.63-6.295-17.8137q-5.3026-31.4622-10.6035-62.9244,19.549.08,39.1016.3553,3.9434,31.957,7.8852,63.9142c.7075,5.714,3.0152,10.1768,6.8775,13.382,3.8589,3.2081,8.8208,4.8029,14.9663,4.8151,6.0854.0123,10.7212-1.5366,13.9551-4.6518,3.23-3.1153,4.6762-7.54,4.2578-13.2942Q854.085,318.1146,851.7881,286.4566Z"/><path class="cls-18" d="M976.0581,291.5432q36.6885,2.0825,73.3677,4.8509c12.229.9247,21.1782,4.0348,26.6787,9.2261,5.5015,5.1948,7.4009,11.2158,5.8589,18.0818-1.29,5.76-4.6572,10.519-9.9732,14.3162q-5.3232,3.7983-14.2685,5.6059,12.3757,3.4429,16.9995,10.0464c3.0854,4.392,3.8569,9.6746,2.42,15.8651a28.4644,28.4644,0,0,1-7.2485,13.3254,36.7354,36.7354,0,0,1-13.2085,8.88q-4.8025,1.9383-13.7168,2.4483c-7.9087.4631-13.0982.6513-15.626.5221q-29.6118-1.5091-59.2319-2.5076Q972.0843,341.8737,976.0581,291.5432Zm34.4932,41.4931q8.1065.4745,16.2109.984,8.721.5484,12.5488-1.6742a9.3659,9.3659,0,0,0,4.6509-6.8652,7.0237,7.0237,0,0,0-2.3257-6.97q-3.0834-2.6657-11.7773-3.26-8.4332-.5655-16.8662-1.0939Q1011.7717,323.5966,1010.5513,333.0363Zm-5.0581,39.1172q9.0161.4443,18.0307.9346c6.09.3312,10.5308-.3532,13.3628-2.0667a10.3424,10.3424,0,0,0,5.103-7.264,7.2989,7.2989,0,0,0-2.5376-7.2558c-2.2246-1.9263-6.5351-3.0938-12.8964-3.4714q-9.2278-.5466-18.4546-1.0465Q1006.7966,362.0687,1005.4932,372.1535Z"/><path class="cls-18" d="M1159.8892,387.9865q-19.9014-1.8372-39.816-3.4482-5.151,7.6691-10.1753,15.3756-17.5-1.3137-35.0068-2.4488,32.4258-47.1979,70.7735-92.6225,21.3522,2.1376,42.6943,4.508a831.2,831.2,0,0,1,7.2534,98.0748q-17.923-1.7964-35.8594-3.4048Q1159.8863,396.0193,1159.8892,387.9865Zm-.0479-21.0812q-.4453-17.5875-1.5176-35.3209-12.3867,16.386-24.1552,32.9606Q1147.0064,365.68,1159.8413,366.9053Z"/><path class="cls-18" d="M1248.4414,316.4891q36.5918,4.6309,73.1367,9.9475c12.1822,1.7747,20.29,5.3146,24.1436,10.503,3.8554,5.1929,3.7383,10.87-.1895,17.06-3.2978,5.1939-8.3623,9.3111-15.0991,12.3976a52.4547,52.4547,0,0,1-16.4819,4.0758q11.4462,4.094,13.9082,10.5107c1.64,4.2675.62,9.1777-2.9785,14.7556a39.4634,39.4634,0,0,1-11.9668,11.695,55.0558,55.0558,0,0,1-16.4912,7.1712,57.12,57.12,0,0,1-14.775,1.2313c-8.1928-.16-13.5161-.3686-16.0317-.6734q-29.5041-3.5666-59.0478-6.6224Q1227.5054,362.5151,1248.4414,316.4891Zm21.0772,40.729q8.08,1.0373,16.1572,2.11,8.688,1.1538,13.3506-.6018a13.2615,13.2615,0,0,0,7.0781-5.9622c1.4829-2.6,1.49-4.7929-.0015-6.5819q-2.24-2.6824-10.9018-3.8807-8.4039-1.1513-16.8111-2.2656Q1273.9539,348.6271,1269.5186,357.2181Zm-18.3814,35.6q8.9868,1.07,17.97,2.187,9.0953,1.1307,14.2774-.91a14.72,14.72,0,0,0,7.6665-6.2967c1.5219-2.6344,1.4985-4.9188-.1079-6.8578-1.605-1.9363-5.59-3.33-11.9351-4.15q-9.1963-1.1875-18.3931-2.3284Q1255.8766,383.64,1251.1372,392.8184Z"/><path class="cls-18" d="M1372.917,334.2488q21.6606,3.4409,43.2969,7.1232,2.113,16.5922,3.1513,32.9086,23.3057-12.1837,47.67-23.92,21.4937,3.9448,42.959,8.1285-46.0818,18.9222-88.6552,39.4-14.3145,17.519-28.6285,35.0382-17.0712-2.71-34.16-5.2478,13.2963-17.8651,26.5932-35.73A523.2785,523.2785,0,0,0,1372.917,334.2488Z"/><path class="cls-18" d="M1522.4307,360.933q52.0473,10.3158,103.9228,22.0373-9.4936,8.1231-18.9892,16.2463-31.6077-7.0013-63.2881-13.4662-6.4241,6.2921-12.8491,12.5844,28.7892,5.7744,57.519,12.0013-9.0089,7.7829-18.0205,15.5661-27.9632-5.9292-55.9868-11.4184-7.9674,7.8044-15.9366,15.6089,30.2609,5.7828,60.4522,12.0925-10.0973,8.6058-20.1948,17.2117-46.23-9.3911-92.626-17.5069Q1484.4309,401.4114,1522.4307,360.933Z"/><path class="cls-18" d="M1649.33,388.2338q18.0585,4.193,36.0918,8.5562a390.8779,390.8779,0,0,1-9.4951,50.818q28.2582-19.57,56.5161-39.1394,18.1692,4.6293,36.31,9.4327-53.3379,34.4121-106.6753,68.8243-15.88-3.8322-31.7876-7.5123a380.172,380.172,0,0,0,11.95-49.376q-26.4462,20.0824-52.8911,40.1647-15.8979-3.4764-31.82-6.8008Z"/><path class="cls-18" d="M483.3662,490.7064Q524.6279,484.8615,566,480.1287q5.8176,11.78,11.6362,23.5589Q552.61,506.73,527.62,510.1935q4.9776,8.8225,9.957,17.6449,22.58-3.2575,45.1929-6.1623,5.6176,11.2581,11.2363,22.516-21.8408,2.9741-43.6518,6.2893,6.1743,10.9428,12.35,21.8857,23.3671-3.7389,46.771-7.0724,6.1443,12.4921,12.289,24.9841-35.4887,5.4066-70.89,11.7847Q517.1214,546.385,483.3662,490.7064Z"/><path class="cls-18" d="M636.124,588.1314q-25.7922-55.0338-51.583-110.0677,25.74-2.7883,51.5127-5.1468c9.5557-.8737,17.2119-.6075,22.9014.7444a33.6592,33.6592,0,0,1,15.6494,8.8734,42.6863,42.6863,0,0,1,10.6147,17.1938c2.0723,6.0194,2.7364,11.311,2.0464,15.888a21.4124,21.4124,0,0,1-5.2622,11.5222,23.5419,23.5419,0,0,1-8.3486,5.34,35.4325,35.4325,0,0,1,8.8169,3.238,46.162,46.162,0,0,1,6.542,5.246,61.0771,61.0771,0,0,1,6.2807,6.3385q12.2263,15.0247,23.7691,29.9947-14.735,1.6884-29.461,3.5434-13.3212-15.7764-27.434-31.607c-3.6148-4.1034-6.4458-6.7171-8.46-7.838a13.2632,13.2632,0,0,0-7.9126-1.732q-1.2363.1464-2.4741.2943,9.4767,22.235,18.9531,44.47Q649.1946,586.2135,636.124,588.1314Zm-1.6255-68.8771q6.1011-.6841,12.2041-1.3432a32.267,32.267,0,0,0,7.0772-2.3072,5.29,5.29,0,0,0,3.373-3.9129,10.5255,10.5255,0,0,0-.6147-6.5107,15.4043,15.4043,0,0,0-6.1045-7.822c-2.7139-1.6919-6.8154-2.276-12.2778-1.7271q-6.5743.6611-13.1495,1.3506Q629.7525,508.1179,634.4985,519.2543Z"/><path class="cls-18" d="M767.1045,572.2365q-13.5564-53.5379-27.1133-107.0759,25.82-1.4918,51.6538-2.5535c9.5825-.3932,17.0523.2132,22.35,1.7592a26.49,26.49,0,0,1,13.4434,9.1516,32.5479,32.5479,0,0,1,6.6538,16.8225,31.172,31.172,0,0,1-1.4785,15.1889,25.5317,25.5317,0,0,1-7.6792,10.7108,29.3807,29.3807,0,0,1-9.34,4.7,29.48,29.48,0,0,1,7.93,3.4754,34.44,34.44,0,0,1,5.2637,5.2813,44.9421,44.9421,0,0,1,4.7661,6.3073q8.688,14.83,16.6943,29.571-14.7627.9478-29.5214,2.0621-9.5947-15.5928-19.9844-31.28c-2.647-4.0641-4.86-6.677-6.5845-7.8331a11.8589,11.8589,0,0,0-7.3628-2.0005q-1.24.0843-2.48.17,4.5087,21.5778,9.0156,43.1558Q780.2161,570.9768,767.1045,572.2365Zm13.0122-65.6344q6.1171-.3774,12.2358-.7289a37.2717,37.2717,0,0,0,7.4307-1.8749,6.577,6.577,0,0,0,4.1533-3.5679,9.9068,9.9068,0,0,0,.8091-6.2177,11.5837,11.5837,0,0,0-4.2891-7.7137c-2.2929-1.7319-6.1962-2.4737-11.6713-2.2q-6.5934.33-13.1836.6889Q777.8588,495.795,780.1167,506.6021Z"/><path class="cls-18" d="M848.5259,460.7911q41.5554-.9457,83.1225-.78-.3265,10.8574-.6523,21.7151-25.1448.0786-50.29.5781.4078,8.2129.8164,16.4258,22.72-.58,45.4424-.8059-.2512,10.3846-.502,20.7689-21.9464.3873-43.8931,1.1156.5054,10.1867,1.0127,20.3736,23.5115-.9674,47.0254-1.5294-.3735,11.511-.7456,23.022-35.655,1.204-71.3071,3.3793Q853.54,512.9229,848.5259,460.7911Z"/><path class="cls-18" d="M950.272,460.1418q23.0383.23,46.0752.8023c9.0893.2265,16.2466,1.6666,21.3906,4.2589a27.6974,27.6974,0,0,1,11.7817,10.8312,34.9608,34.9608,0,0,1,4.5323,15.94,72.5418,72.5418,0,0,1-1.63,19.0044c-2.1953,10.4458-5.0117,18.525-8.334,24.2653a57.0848,57.0848,0,0,1-11.6865,14.4593A36.3153,36.3153,0,0,1,999.12,557.56a58.809,58.809,0,0,1-16.0122,2.8584q-19.41.2605-38.8227.8092Q947.2774,510.6849,950.272,460.1418Zm28.5527,23.1145q-2.9692,27.3229-5.939,54.6457,3.3376-.0277,6.6753-.0478c5.691-.0336,9.8306-.754,12.4507-2.1777A17.8047,17.8047,0,0,0,998.83,528.25c1.9258-3.5276,3.5361-9.2449,4.791-17.1626,1.665-10.4793,1.167-17.6811-1.5693-21.6209-2.7286-3.9347-8.0147-5.9913-15.7666-6.1084Q982.5543,483.3024,978.8247,483.2563Z"/><path class="cls-18" d="M1059.3081,463.1467q23.0222,1.0392,46.03,2.42c9.0727.5457,16.0161,2.19,20.73,4.871a22.2916,22.2916,0,0,1,9.9483,10.8456,29.9728,29.9728,0,0,1,1.7725,15.4936,72.4067,72.4067,0,0,1-4.9556,18.2151c-4.0269,9.9647-8.2622,17.6315-12.5923,23.0331a69.28,69.28,0,0,1-14.2105,13.49,43.9,43.9,0,0,1-14.6289,7.09,64.7969,64.7969,0,0,1-16.46,2.1931q-19.3865-.4211-38.7847-.5541Q1047.7324,511.6955,1059.3081,463.1467Zm24.6382,23.2615q-7.6575,26.1864-15.314,52.3727,3.3333.0894,6.6675.1867,8.52.2489,12.8057-1.6593a21.6009,21.6009,0,0,0,8.0981-6.9035q3.81-4.9872,7.7661-16.3383c3.4766-10.02,4.2354-16.9657,2.1695-20.8539-2.0581-3.8831-6.9986-6.0518-14.7408-6.4406Q1087.6741,486.5854,1083.9463,486.4082Z"/><path class="cls-18" d="M1167.73,469.943q41.4558,3.3274,82.8359,7.7671-5.685,9.4611-11.3706,18.9222-25.032-2.5068-50.0972-4.5926-3.5844,7.24-7.1674,14.4806,22.6494,1.7565,45.271,3.8664-5.3694,9.0566-10.7417,18.1134-21.8475-1.8691-43.7271-3.3975-4.4443,8.98-8.89,17.9609,23.4368,1.45,46.8447,3.3058-6.0564,10.0269-12.1143,20.054-35.4932-2.462-71.061-3.9527Q1147.6217,516.2067,1167.73,469.943Z"/><path class="cls-18" d="M1261.6748,478.9223q46.9189,5.205,93.7031,11.8409-8.6133,10.2689-17.2246,20.5378-15.0842-2.014-30.1865-3.8731-24.4035,31.9557-48.8076,63.9112-12.9807-1.2065-25.9741-2.2825,22.576-32.5629,45.1533-65.1258-15.1166-1.7074-30.2461-3.26Q1254.884,489.7966,1261.6748,478.9223Z"/></svg>
