<svg id="Layer_1" data-name="Layer 1" xmlns="http://www.w3.org/2000/svg" width="1920" height="1080" viewBox="0 0 1920 1080"><defs><style>.cls-1,.cls-2,.cls-3{fill:#fcee21;}.cls-2{opacity:0.57;}.cls-3{opacity:0.43;}.cls-4{fill:#fbb03b;opacity:0.32;}.cls-5{fill:#fed2be;}.cls-6{fill:#fedccf;}.cls-10,.cls-7{fill:none;stroke:#998675;stroke-linecap:round;}.cls-10,.cls-19,.cls-20,.cls-21,.cls-22,.cls-23,.cls-24,.cls-25,.cls-26,.cls-27,.cls-28,.cls-29,.cls-30,.cls-31,.cls-32,.cls-33,.cls-34,.cls-35,.cls-36,.cls-37,.cls-38,.cls-39,.cls-40,.cls-42,.cls-7{stroke-miterlimit:10;}.cls-7{stroke-width:3px;}.cls-11,.cls-8{fill:#c1272d;}.cls-8{opacity:0.27;}.cls-9{fill:#fff;}.cls-10{stroke-width:4px;}.cls-11{opacity:0.28;}.cls-12{fill:#fededa;}.cls-13{fill:#fed2ff;}.cls-14{fill:gray;}.cls-15{fill:#e6e6e6;}.cls-16{fill:#b3b3b3;}.cls-17{fill:#ccc;}.cls-18,.cls-42{opacity:0.52;}.cls-19{fill:#fff16f;}.cls-19,.cls-20{stroke:#f7931e;}.cls-20{fill:#fff1aa;}.cls-21{fill:#c7fffb;}.cls-21,.cls-22,.cls-38,.cls-40,.cls-42{stroke:blue;}.cls-22{fill:#94f7ff;}.cls-23{fill:#ff6a7f;}.cls-23,.cls-24,.cls-25{stroke:#c1272d;}.cls-24{fill:#ffb4c3;}.cls-25{fill:#ff5f7f;}.cls-26{fill:#a4ff6a;}.cls-26,.cls-27,.cls-28{stroke:#39b54a;}.cls-27{fill:#bfffc4;}.cls-28{fill:#89f16f;}.cls-29{fill:#8f6aff;}.cls-29,.cls-30,.cls-31{stroke:#662d91;}.cls-30{fill:#c7c1ff;}.cls-31{fill:#9d74ff;}.cls-32{fill:#ffab3f;}.cls-32,.cls-33,.cls-34{stroke:#f15a24;}.cls-33{fill:#ffc37f;}.cls-34{fill:#ffaa1f;}.cls-35{fill:#fd7fff;}.cls-35,.cls-36,.cls-37{stroke:#f0f;}.cls-36{fill:#ffaafb;}.cls-37{fill:#f86aff;}.cls-38{fill:#8aa4ff;}.cls-39{fill:#9fcaff;stroke:#0071bc;}.cls-40{fill:#94bbff;}.cls-41{fill:#ff3200;}.cls-42{fill:#8af6ff;}.cls-43{opacity:0.37;}.cls-44{fill:blue;}</style></defs><title>TITELSIDE</title><polygon class="cls-1" points="139.712 119.175 146.873 124.665 155.716 122.869 152.407 130.231 157.619 137.189 148.413 136.249 142.792 142.345 140.412 134.403 131.725 131.212 139.46 127.243 139.712 119.175"/><polygon class="cls-1" points="1541.433 83.262 1550.963 91.468 1563.126 88.269 1558.267 99.868 1565.068 110.447 1552.534 109.41 1544.575 119.147 1541.688 106.907 1529.968 102.346 1540.717 95.818 1541.433 83.262"/><polygon class="cls-1" points="1491.715 16.161 1497.927 21.576 1505.884 19.431 1502.683 27.124 1507.106 34.117 1498.916 33.456 1493.692 39.922 1491.831 31.821 1484.18 28.825 1491.22 24.479 1491.715 16.161"/><polygon class="cls-1" points="1241.897 93.07 1249.058 98.559 1257.9 96.764 1254.592 104.126 1259.804 111.083 1250.598 110.144 1244.977 116.239 1242.597 108.297 1233.91 105.107 1241.645 101.137 1241.897 93.07"/><polygon class="cls-1" points="1133.122 131.709 1142.652 139.914 1154.815 136.715 1149.956 148.315 1156.757 158.894 1144.223 157.857 1136.264 167.594 1133.377 155.354 1121.657 150.792 1132.406 144.264 1133.122 131.709"/><polygon class="cls-1" points="74.523 224.088 84.054 232.294 96.216 229.095 91.357 240.695 98.158 251.273 85.625 250.237 77.665 259.973 74.778 247.733 63.058 243.172 73.807 236.644 74.523 224.088"/><polygon class="cls-1" points="876.334 97.101 885.864 105.307 898.026 102.108 893.167 113.708 899.968 124.287 887.435 123.25 879.475 132.987 876.588 120.746 864.868 116.185 875.617 109.657 876.334 97.101"/><polygon class="cls-1" points="891.906 26.395 896.96 31.185 903.603 29.095 900.804 36.124 904.345 42.377 897.56 41.931 893.106 47.886 891.712 40.581 885.418 38.009 891.341 33.94 891.906 26.395"/><polygon class="cls-1" points="631.252 106.248 636.804 110.964 643.861 109.158 641.063 115.788 645.034 121.857 637.753 121.238 633.15 126.796 631.448 119.783 624.632 117.148 630.862 113.433 631.252 106.248"/><polygon class="cls-1" points="599.564 59.369 609.094 67.575 621.257 64.376 616.398 75.976 623.199 86.555 610.665 85.518 602.706 95.255 599.819 83.014 588.099 78.453 598.848 71.925 599.564 59.369"/><polygon class="cls-1" points="427.276 188.804 434.531 194.347 443.482 192.545 440.139 199.967 445.423 206.989 436.101 206.033 430.416 212.176 427.998 204.163 419.201 200.937 427.028 196.941 427.276 188.804"/><polygon class="cls-1" points="231.478 72.067 241.008 80.273 253.17 77.074 248.311 88.673 255.112 99.252 242.579 98.215 234.619 107.952 231.732 95.712 220.012 91.151 230.761 84.623 231.478 72.067"/><polygon class="cls-1" points="1188.121 44.473 1198.505 53.543 1211.813 49.941 1206.453 62.839 1213.843 74.556 1200.147 73.457 1191.405 84.3 1188.301 70.723 1175.508 65.708 1187.286 58.415 1188.121 44.473"/><polygon class="cls-1" points="1879.479 194.872 1885.778 200.398 1893.862 198.191 1890.599 206.063 1895.078 213.205 1886.762 212.544 1881.447 219.164 1879.571 210.884 1871.806 207.834 1878.963 203.377 1879.479 194.872"/><polygon class="cls-1" points="1775.541 66.726 1785.071 74.932 1797.234 71.733 1792.375 83.333 1799.176 93.911 1786.642 92.875 1778.683 102.612 1775.796 90.371 1764.076 85.81 1774.825 79.282 1775.541 66.726"/><circle class="cls-2" cx="241.6752" cy="601.5268" r="84"/><polygon class="cls-3" points="428.721 292.994 477.952 325.509 323.962 504.235 428.721 292.994"/><polygon class="cls-3" points="268.135 242 326.34 251.655 258.452 477.591 268.135 242"/><polygon class="cls-3" points="451.676 879.882 402.909 913.091 295.995 702.792 451.676 879.882"/><polygon class="cls-3" points="552.495 439.258 573.968 494.211 345.098 551.435 552.495 439.258"/><path class="cls-3" d="M600.3943,582.109l-1.6018,58.9783L365.6932,604.7454Z"/><polygon class="cls-3" points="90.134 274.366 146.814 257.984 182.97 491.112 90.134 274.366"/><polygon class="cls-3" points="559.701 754.829 531.236 806.507 340.746 667.333 559.701 754.829"/><polygon class="cls-3" points="4 600 4 577 111.177 596.836 4 600"/><polygon class="cls-3" points="4 761 4 717 132.17 663.187 4 761"/><polygon class="cls-3" points="124.498 919.427 70.457 895.75 191.839 693.457 124.498 919.427"/><polygon class="cls-3" points="275.852 942.747 216.854 942.231 248.899 708.503 275.852 942.747"/><polygon class="cls-3" points="4 464 4 416 136.452 527.916 4 464"/><circle class="cls-4" cx="606.4618" cy="77.2985" r="20.5"/><circle class="cls-4" cx="432.6894" cy="200.2138" r="15.5"/><circle class="cls-4" cx="1549.337" cy="100.1974" r="20.5"/><circle class="cls-4" cx="1496.7884" cy="27.8672" r="15.5"/><circle class="cls-4" cx="1247.2991" cy="105.308" r="15.5"/><circle class="cls-4" cx="1195.5628" cy="62.9835" r="20.5"/><circle class="cls-4" cx="1140.5228" cy="149.1409" r="21"/><circle class="cls-4" cx="895.7251" cy="36.1073" r="15.5"/><circle class="cls-4" cx="883.7343" cy="114.5338" r="22"/><circle class="cls-4" cx="635.2172" cy="116.4792" r="15.5"/><circle class="cls-4" cx="1883.6798" cy="206.291" r="15.5"/><circle class="cls-4" cx="1781.9482" cy="83.1522" r="21"/><circle class="cls-4" cx="82" cy="242" r="25"/><circle class="cls-4" cx="146.1204" cy="130.4198" r="19.5"/><circle class="cls-4" cx="238.8783" cy="89.4992" r="21"/><circle class="cls-5" cx="1688.8808" cy="211.0098" r="5.198"/><circle class="cls-6" cx="1710.7869" cy="247.7675" r="41.2131"/><path class="cls-7" d="M1731.9175,213.9405a4.1046,4.1046,0,0,0-1.5947-5.5814,5.1307,5.1307,0,0,0-6.9767,1.9933,6.4134,6.4134,0,0,0,2.4917,8.7209,8.0166,8.0166,0,0,0,10.9011-3.1146,10.021,10.021,0,0,0-3.8933-13.6264"/><ellipse class="cls-8" cx="1697.4205" cy="265.2181" rx="13.3664" ry="10.0248" transform="matrix(0.5, -0.866, 0.866, 0.5, 619.0247, 1602.6183)"/><ellipse class="cls-9" cx="1705.5016" cy="235.6826" rx="9.6535" ry="6.9562" transform="translate(821.1481 1712.91) rotate(-66.9607)"/><ellipse cx="1705.3623" cy="237.0356" rx="8.354" ry="6.0198" transform="translate(819.8183 1713.6053) rotate(-66.9607)"/><ellipse class="cls-9" cx="1705.6771" cy="240.3972" rx="2.4134" ry="1.7391" transform="translate(816.9164 1715.941) rotate(-66.9607)"/><ellipse class="cls-9" cx="1720.6135" cy="246.4063" rx="9.1549" ry="6.3589" transform="translate(486.1422 1470.0515) rotate(-52.8975)"/><ellipse cx="1719.6122" cy="246.3112" rx="7.9225" ry="5.5029" transform="translate(485.8208 1469.2152) rotate(-52.8975)"/><ellipse class="cls-9" cx="1716.7772" cy="248.301" rx="2.2887" ry="1.5897" transform="translate(483.109 1467.7436) rotate(-52.8975)"/><path class="cls-10" d="M1697.2812,218.8229c1.9253,3.6983,8.879,3.889,15.5316.4259"/><ellipse class="cls-11" cx="1688.5095" cy="239.9704" rx="4.0842" ry="7.4258" transform="translate(266.8956 1182.1296) rotate(-41.6227)"/><ellipse class="cls-11" cx="1727.1236" cy="260.7626" rx="4.0842" ry="7.4258" transform="translate(1122.9315 1899.6357) rotate(-78.3486)"/><path class="cls-12" d="M1557.8287,239.3366a4.1015,4.1015,0,0,0,1.9625-2.8216,4.298,4.298,0,0,0-8.4689-1.4533,4.0725,4.0725,0,0,0,.3557,2.4723,17.7109,17.7109,0,0,0-2.0024-.1059,4.5344,4.5344,0,0,0,1.7252-2.8239,4.7756,4.7756,0,0,0-9.41-1.6148,4.5055,4.5055,0,0,0-.0513.7671,4.35,4.35,0,0,0-2.3012-1.1708,4.2379,4.2379,0,0,0-4.9409,3.39,4.0437,4.0437,0,0,0,.0346,1.4947,4.4094,4.4094,0,0,0-.7406-.2031,4.1786,4.1786,0,1,0-1.413,8.2336,4.3317,4.3317,0,0,0,2.9926-.5764,16.2791,16.2791,0,0,0-1.0886,1.9079,3.8526,3.8526,0,0,0-2.3745-1.4122,3.7144,3.7144,0,1,0-1.256,7.3188,3.8658,3.8658,0,0,0,2.042-.2084,17.2023,17.2023,0,0,0,34.03,4.515A16.7693,16.7693,0,0,0,1557.8287,239.3366Zm-12.8518-1.222a17.2709,17.2709,0,0,0-2.4622.9144,4.0524,4.0524,0,0,0,.6517-1.6,4,4,0,0,0,.0354-.5308A4.7891,4.7891,0,0,0,1544.9769,238.1146Zm-7.4921,2.5016a4.4011,4.4011,0,0,0,.7407.2031,4.357,4.357,0,0,0,1.263.0139,16.8373,16.8373,0,0,0-2.1375,1.8788,3.5937,3.5937,0,0,0,.1338-2.0958Z"/><ellipse class="cls-13" cx="1624.7994" cy="119.4021" rx="17.2439" ry="4.5639" transform="translate(1063.1138 1648.6957) rotate(-74.0355)"/><ellipse class="cls-13" cx="1616.1448" cy="117.2297" rx="5.1772" ry="15.6937" transform="matrix(0.968, -0.2508, 0.2508, 0.968, 22.2495, 409.0593)"/><path class="cls-12" d="M1521.0912,249.2778a4.1017,4.1017,0,0,0,1.2967-3.183,4.298,4.298,0,0,0-8.5815.4372,4.0721,4.0721,0,0,0,.8887,2.3344,17.6891,17.6891,0,0,0-1.977.3354,4.5351,4.5351,0,0,0,1.0647-3.1333,4.7756,4.7756,0,0,0-9.5351.4859,4.4912,4.4912,0,0,0,.1181.76,4.3509,4.3509,0,0,0-2.5019-.6382,4.2379,4.2379,0,0,0-4.0782,4.39,4.0438,4.0438,0,0,0,.3613,1.4507,4.4116,4.4116,0,0,0-.7672-.0359,4.1787,4.1787,0,1,0,.4252,8.3432,4.3322,4.3322,0,0,0,2.7936-1.218,16.2756,16.2756,0,0,0-.6442,2.1,3.8527,3.8527,0,0,0-2.6262-.8577,3.7144,3.7144,0,1,0,.3779,7.4162,3.865,3.865,0,0,0,1.9467-.6508,17.2023,17.2023,0,0,0,34.1921-3.05A16.7691,16.7691,0,0,0,1521.0912,249.2778Zm-12.8073,1.6231a17.2873,17.2873,0,0,0-2.2021,1.4316,3.5541,3.5541,0,0,0,.2037-2.2294A4.7863,4.7863,0,0,0,1508.2839,250.9009Zm-6.762,4.0822a3.97,3.97,0,0,0,2.0025-.2272,16.8287,16.8287,0,0,0-1.6739,2.3014,3.5941,3.5941,0,0,0-.3286-2.0742Z"/><path class="cls-13" d="M1507.4326,271.94c47.9981-3.2508,90.1607-72.7759,109.1372-136.8018,3.2478-10.45,7.4256-10.156,10.6511.7074,18.55,65.9414,63.6145,142.7447,115.6214,142.6594,12.8462.3689,17.6645,10.0319,6.0178,25.0351-31.5478,39.8206-78.0874,81.8537-125.1616,77.6205-47.1506-1.0539-91.6575-46.4384-121.5117-83.3491C1491.0967,283.6966,1495.4907,273.2184,1507.4326,271.94Z"/><path class="cls-8" d="M1678.84,284.4028c0-16.5154-12.4418-29.9037-27.79-29.9037-10.11,0-18.9573,5.811-23.82,14.4972-4.8624-8.6862-13.71-14.4972-23.82-14.4972-15.3477,0-27.79,13.3883-27.79,29.9037,0,12.0416,6.6177,22.414,16.15,27.1536l34.9031,37.99,35.4538-37.7173C1671.9618,307.2237,1678.84,296.68,1678.84,284.4028Z"/><polygon class="cls-14" points="1361.265 188.384 1373.098 214.032 1305 213.233 1361.265 188.384"/><polygon class="cls-15" points="1350.241 187.606 1657.535 140.621 1364.337 275.859 1350.241 187.606"/><polygon class="cls-15" points="1340.381 157.508 1657.786 140.886 1336.575 87.926 1340.381 157.508"/><polygon class="cls-16" points="1344.228 197.374 1342.015 157.968 1657.269 141.018 1344.228 197.374"/><polygon class="cls-16" points="1341.735 158.425 1380.223 182.892 1305.233 213.392 1341.735 158.425"/><ellipse class="cls-17" cx="668.5654" cy="472.8728" rx="160.5654" ry="141.3391"/><ellipse class="cls-17" cx="1037.5022" cy="459.3624" rx="160.5654" ry="141.3391"/><ellipse class="cls-17" cx="1231.3239" cy="411.0369" rx="108.0829" ry="107.5632"/><ellipse class="cls-17" cx="877.4564" cy="397.0069" rx="160.5654" ry="141.3391"/><ellipse class="cls-17" cx="888.8882" cy="649.5467" rx="141.3391" ry="160.5654" transform="translate(-210.3856 709.7981) rotate(-39.2944)"/><ellipse class="cls-17" cx="670.1243" cy="634.9971" rx="106.0044" ry="93.5333"/><circle class="cls-17" cx="1038.5414" cy="681.2441" r="91.9744"/><ellipse class="cls-17" cx="1300.4346" cy="543.5423" rx="160.5654" ry="141.3391"/><circle class="cls-17" cx="1140.3888" cy="632.3989" r="91.9744"/><ellipse class="cls-9" cx="689.4891" cy="475.6765" rx="153.4891" ry="133.8373"/><ellipse class="cls-9" cx="1042.1663" cy="462.8832" rx="153.4891" ry="133.8373"/><ellipse class="cls-9" cx="1227.446" cy="417.1227" rx="103.3195" ry="101.8542"/><ellipse class="cls-9" cx="889.1739" cy="403.8373" rx="153.4891" ry="133.8373"/><ellipse class="cls-9" cx="900.102" cy="642.9732" rx="134.5751" ry="152.6477" transform="translate(-200.2468 756.2457) rotate(-41.417)"/><ellipse class="cls-9" cx="690.9793" cy="629.1958" rx="101.3326" ry="88.5688"/><ellipse class="cls-9" cx="1043.1598" cy="672.9882" rx="87.9209" ry="87.0927"/><ellipse class="cls-9" cx="1293.5109" cy="542.5952" rx="153.4891" ry="133.8373"/><ellipse class="cls-9" cx="1140.5185" cy="626.7356" rx="87.9209" ry="87.0927"/><g class="cls-18"><polygon class="cls-19" points="531.474 445.782 567.585 406.49 668.548 407.822 628.137 447.668 531.474 445.782"/><rect class="cls-20" x="532.0094" y="444.8904" width="99.101" height="90.1665"/><polygon class="cls-19" points="631.392 534.696 666.731 505.047 667.897 409.15 631.972 442.812 631.392 534.696"/><rect class="cls-21" x="641.0204" y="421.8478" width="99.101" height="90.1665"/><polygon class="cls-22" points="740.403 511.654 775.742 482.005 776.908 386.108 740.983 419.77 740.403 511.654"/><polygon class="cls-23" points="739.586 452.795 775.697 413.503 876.66 414.835 836.249 454.681 739.586 452.795"/><rect class="cls-24" x="740.1214" y="451.9033" width="99.101" height="90.1665"/><polygon class="cls-25" points="839.504 541.709 874.843 512.06 876.009 416.163 840.084 449.825 839.504 541.709"/><polygon class="cls-26" points="857.406 441.775 893.517 402.483 994.481 403.815 954.069 443.661 857.406 441.775"/><rect class="cls-27" x="857.9414" y="440.883" width="99.101" height="90.1665"/><polygon class="cls-28" points="957.324 530.689 992.663 501.04 993.829 405.143 957.904 438.805 957.324 530.689"/><polygon class="cls-29" points="964.215 453.797 1000.326 414.505 1101.289 415.837 1060.878 455.683 964.215 453.797"/><rect class="cls-30" x="964.7502" y="452.9052" width="99.101" height="90.1665"/><polygon class="cls-31" points="1064.133 542.711 1099.472 513.062 1100.638 417.165 1064.713 450.827 1064.133 542.711"/><polygon class="cls-32" points="1065.813 450.732 1101.925 411.44 1202.888 412.772 1162.476 452.618 1065.813 450.732"/><rect class="cls-33" x="1066.3489" y="449.84" width="99.101" height="90.1665"/><polygon class="cls-34" points="1165.732 539.646 1201.07 509.997 1202.236 414.1 1166.311 447.762 1165.732 539.646"/><polygon class="cls-35" points="1174.825 427.689 1210.936 388.397 1311.899 389.729 1271.488 429.575 1174.825 427.689"/><rect class="cls-36" x="1175.36" y="426.7974" width="99.101" height="90.1665"/><polygon class="cls-37" points="1274.743 516.603 1310.081 486.955 1311.247 391.057 1275.322 424.719 1274.743 516.603"/><polygon class="cls-38" points="1273.925 457.745 1310.037 418.453 1411 419.784 1370.588 459.631 1273.925 457.745"/><rect class="cls-39" x="1274.4609" y="456.8529" width="99.101" height="90.1665"/><polygon class="cls-40" points="1373.844 546.659 1409.182 517.01 1410.348 421.113 1374.423 454.775 1373.844 546.659"/><path class="cls-41" d="M547.68,456.9009h22.7666L583.8105,478.68l13.3916-21.7793h22.6446l-25.79,37.52V521.46h-20.542V494.4209Z"/><path class="cls-41" d="M658.9238,465.7139q0-15.8094,9.0489-24.6172t25.2021-8.8076q16.56,0,25.5186,8.6533t8.9589,24.2427q0,11.3189-3.914,18.562a27.5087,27.5087,0,0,1-11.3115,11.2734q-7.3975,4.03-18.4375,4.03-11.2223,0-18.5733-3.479a27.6632,27.6632,0,0,1-11.9228-11.0093Q658.9228,477.0313,658.9238,465.7139Zm20.4961.0879q0,9.7762,3.7334,14.0478a12.7931,12.7931,0,0,0,10.1572,4.272q6.6064,0,10.2256-4.1836t3.62-15.0171q0-9.1157-3.7783-13.3213T693.13,447.394a12.6039,12.6039,0,0,0-9.9541,4.2715Q679.42,455.9378,679.42,465.8018Z"/><path class="cls-41" d="M800.1758,466.1382H820.627v38.4634a31.6083,31.6083,0,0,1-1.8321,10.8037,23.2677,23.2677,0,0,1-5.7461,8.89,22.9776,22.9776,0,0,1-8.2119,5.3462,42.3747,42.3747,0,0,1-14.3437,2.1567,92.7163,92.7163,0,0,1-10.5645-.66,28.2215,28.2215,0,0,1-9.5693-2.6187,23.8424,23.8424,0,0,1-7.0362-5.5669,20.3,20.3,0,0,1-4.3662-7.4375,37.6188,37.6188,0,0,1-1.9-10.9135V466.1382h20.4512v39.3794q0,5.28,3.0088,8.25t8.3477,2.97q5.2939,0,8.3027-2.9258t3.0088-8.2939Z"/><path class="cls-41" d="M869.8867,457.0542h21.4258l14.93,46.4595,14.7383-46.4595h20.8017l-24.6289,64.5591H894.9375Z"/><path class="cls-41" d="M987.998,466.1382h54.9288v13.7837H1008.54v10.2607h31.8985V503.35H1008.54v12.7266h35.3829v14.6206H987.998Z"/><path class="cls-41" d="M1115.6084,506.0762V492.6445h31.6728V520.168q-9.0951,6.0336-16.0849,8.2129a55.9823,55.9823,0,0,1-16.583,2.18q-11.81,0-19.252-3.9194a27.1622,27.1622,0,0,1-11.5381-11.67,37.51,37.51,0,0,1-4.0947-17.7915,36.3459,36.3459,0,0,1,4.48-18.3853,28.7159,28.7159,0,0,1,13.1211-11.8681q6.7412-3.1267,18.1436-3.127,10.995,0,16.4472,1.9375a21.3889,21.3889,0,0,1,9.0489,6.0112,26.4624,26.4624,0,0,1,5.4072,10.3272l-19.7725,3.4346a10.4436,10.4436,0,0,0-4.14-5.5928,13.2054,13.2054,0,0,0-7.4434-1.9375,13.5858,13.5858,0,0,0-10.7461,4.5581q-4.0034,4.5579-4.0039,14.4219,0,10.4817,4.05,14.9731t11.2881,4.4917a22.0168,22.0168,0,0,0,6.5615-.9687,35.893,35.893,0,0,0,7.1485-3.3028v-6.0771Z"/><path class="cls-41" d="M1188.1006,470.002q0-15.8094,9.0488-24.6172t25.2022-8.8077q16.56,0,25.5185,8.6534t8.959,24.2426q0,11.3189-3.9141,18.5621a27.5087,27.5087,0,0,1-11.3115,11.2734q-7.3974,4.03-18.4375,4.03-11.2221,0-18.5732-3.479A27.6635,27.6635,0,0,1,1192.67,488.85Q1188.1,481.3194,1188.1006,470.002Zm20.4961.0878q0,9.7764,3.7334,14.0479a12.7935,12.7935,0,0,0,10.1572,4.272q6.6064,0,10.2256-4.1836t3.62-15.0171q0-9.1158-3.7783-13.3213t-10.2481-4.2056a12.6037,12.6037,0,0,0-9.9541,4.2715Q1208.5967,460.2259,1208.5967,470.09Z"/><path class="cls-41" d="M1295.7266,471.0884H1358.03V487.03H1337.126v48.6177H1316.63V487.03h-20.9033Z"/></g><path class="cls-10" d="M1732.4962,232.5088c-1.5229,2.94,1.53,7.5447,6.8191,10.2841"/><polygon class="cls-42" points="643.684 420.562 678.665 382.5 776.468 383.79 737.322 422.389 643.684 420.562"/><g class="cls-43"><path class="cls-44" d="M698.813,570.492q23.1233-5.157,46.396-9.5084c7.7651-1.45,16.0757-.1059,24.6186,3.9733a72.2045,72.2045,0,0,1,22.4082,16.7684c5.4327,5.9443,8.7471,11.2856,10.1309,16.0305a9.0645,9.0645,0,0,1-1.0835,8.184,45.4582,45.4582,0,0,1,18.99,6.8072,83.3707,83.3707,0,0,1,17.7286,15.2906,75.8113,75.8113,0,0,1,10.6025,14.524q3.6064,6.7031,3.5669,11.1463c-.01,1.8446-1.0928,3.45-3.2554,4.8326a26.1949,26.1949,0,0,1-6.0976,3.2449q-14.2969,3.6735-28.5166,7.8037Zm67,33.8q4.686-1.0485,9.3789-2.0594c3.3642-.7247,4.86-2.0462,4.519-3.9857-.3467-1.9386-2.0644-4.4789-5.2075-7.6226a30.0247,30.0247,0,0,0-8.9331-6.4146,15.8991,15.8991,0,0,0-9.8647-.9686q-5.1117,1.0468-10.2144,2.1352Q755.6518,594.8341,765.8135,604.292Zm42.1059,39.1924q4.6677-1.1724,9.3413-2.3007c3.1558-.7618,4.4214-2.2294,3.8526-4.4256-.5786-2.1951-2.41-4.8875-5.5635-8.0789a32.2036,32.2036,0,0,0-9.1382-6.6879,15.1835,15.1835,0,0,0-10.0508-1.0611q-5.0808,1.149-10.1523,2.3456Q797.0637,633.38,807.9194,643.4844Z"/><path class="cls-44" d="M892.8037,631.4994q-10.278,1.7622-20.5288,3.7381,5.171,8.5941,10.5591,17.19-8.5137,1.7961-17.0044,3.752A828.842,828.842,0,0,1,806.498,550.9483q13.6481-1.92,27.3326-3.5659a1189.05,1189.05,0,0,1,90.8442,97.2014q-8.778,1.4408-17.5371,3.0492Q900.0831,639.5659,892.8037,631.4994Zm-19.3579-21.1436q-16.5249-17.5527-34.12-35.088,9.4606,18.6992,19.9863,37.4235Q866.374,611.4775,873.4458,610.3558Z"/><path class="cls-44" d="M872.4243,543.2885q23.5488-2.1639,47.1685-3.5225a30.0066,30.0066,0,0,1,20.7041,6.1688,35.902,35.902,0,0,1,12.1606,17.25c1.99,5.8435,2.335,10.9259,1.2207,15.2772a12.36,12.36,0,0,1-5.0766,7.142,27.1133,27.1133,0,0,1,13.9521,8.0429,41.4288,41.4288,0,0,1,8.5337,15.4247,44.0884,44.0884,0,0,1,2.4287,13.9971,21.3741,21.3741,0,0,1-2.2275,10.2782q-1.3491,2.4607-5.25,3.972a37.6951,37.6951,0,0,1-7.002,2.2763q-14.5144,1.8335-28.9946,4.1236Q901.2326,593.5038,872.4243,543.2885Zm44.6812,37.1271q4.7636-.4443,9.53-.8506c3.4218-.2915,5.4316-1.3081,6.0742-3.0669.6391-1.758.3247-4.1957-.9937-7.3187a15.1737,15.1737,0,0,0-5-6.641c-2.1225-1.53-4.9858-2.1725-8.5522-1.9061q-5.1885.3885-10.3784.8186Q912.4456,570.9331,917.1055,580.4156Zm19.3115,39.2937q4.7439-.57,9.4907-1.0968c3.207-.3554,5.0537-1.5325,5.6-3.5467s.1914-4.6-1.1123-7.7656a16.2137,16.2137,0,0,0-5.0244-6.899c-2.1484-1.6588-5.0332-2.3309-8.5972-1.99q-5.1577.4947-10.3144,1.0373Q931.4392,609.5789,936.417,619.7093Z"/><path class="cls-44" d="M952.812,538.2543q14.0333-.47,28.0791-.6568,11.863,16.3446,21.876,32.5559a317.1425,317.1425,0,0,1,11.145-32.6027q13.9776.1458,27.958.5723a301.0647,301.0647,0,0,0-25.0132,55.356q2.46,20.1653,4.9214,40.3306-8.4535.4926-16.9018,1.139-4.2312-20.3961-8.46-40.7922A541.4372,541.4372,0,0,0,952.812,538.2543Z"/><path class="cls-44" d="M1087.9,540.288q16.6362,1.0575,33.26,2.5126-1.2848,27.8347-5.1714,55.1459,14.0661-26.6616,30.7114-52.6745,16.6,1.76,33.1724,3.9163-22.4319,42.4668-44.8643,84.9336-6.8855-.4405-13.7764-.7784,14.4807-33.0552,28.9615-66.11a733.9771,733.9771,0,0,0-39.585,65.651q-6.2416-.234-12.4878-.3838a588.7751,588.7751,0,0,0,5.4834-69.2468q-8.0493,34.5264-16.1006,69.0529-6.9037-.0865-13.81-.07Q1080.7971,586.262,1087.9,540.288Z"/><path class="cls-44" d="M1190.1387,625.0305q-10.2863-1.3122-20.5948-2.4107-6.17,6.5716-12.1206,13.2108-8.5664-.7581-17.1464-1.3564a658.7667,658.7667,0,0,1,78.1323-79.7276q13.7233,2.1734,27.4175,4.62a424.1657,424.1657,0,0,1-46.52,81.1383q-8.7422-1.179-17.5034-2.19Q1186.0847,631.706,1190.1387,625.0305Zm10.3325-17.5866q8.1519-14.7259,15.2275-29.756-15.2335,13.7575-29.4067,27.8582Q1193.3863,606.449,1200.4712,607.4439Z"/><path class="cls-44" d="M1285.2734,566.9964q12.5376,2.6108,25.0454,5.4523-44.1723,35.7009-88.3466,71.4019-8.3386-1.3372-16.6968-2.52Z"/><path class="cls-44" d="M1328.208,576.6354q12.4548,3,24.8731,6.23-38.6684,24.8811-77.3355,49.7625,14.5107,3.12,28.9487,6.66-14.2193,7.4781-28.4389,14.9563-21.0894-4.7029-42.3575-8.4011Q1281.0528,611.24,1328.208,576.6354Z"/></g></svg>
