<svg id="Layer_1" data-name="Layer 1" xmlns="http://www.w3.org/2000/svg" width="210" height="220" viewBox="0 0 210 220"><defs><style>.cls-1{fill:#666;}.cls-2{fill:#ff0;opacity:0.45;}</style></defs><title>TORDENSKY</title><path class="cls-1" d="M169.5,42a29.4392,29.4392,0,0,0-9.7571,1.6594,29.4927,29.4927,0,0,0-53.04-13.5882A29.5,29.5,0,0,0,50.4077,46.372a29.5012,29.5012,0,1,0,4.01,54.6535,29.4936,29.4936,0,0,0,48.9279,1.8352,29.3063,29.3063,0,0,0,8.1-1.9669,29.4938,29.4938,0,0,0,47.4834-1.8528A29.5,29.5,0,1,0,169.5,42Z"/><polygon class="cls-2" points="128.822 155.966 98.178 81.034 102.044 133 82 133 107 210 107 157.59 128.822 155.966"/></svg>
