<svg id="Layer_1" data-name="Layer 1" xmlns="http://www.w3.org/2000/svg" width="1920" height="1080" viewBox="0 0 1920 1080"><defs><style>.cls-1{fill:#fed2be;}.cls-2{fill:#fedccf;}.cls-3,.cls-6{fill:none;stroke:#998675;stroke-linecap:round;stroke-miterlimit:10;}.cls-3{stroke-width:3px;}.cls-4,.cls-7{fill:#c1272d;}.cls-4{opacity:0.27;}.cls-5{fill:#fff;}.cls-6{stroke-width:4px;}.cls-7{opacity:0.28;}.cls-8{fill:#fededa;}.cls-9{fill:#fed2ff;}.cls-10{fill:gray;}.cls-11{fill:#e6e6e6;}.cls-12{fill:#b3b3b3;}.cls-13,.cls-14,.cls-15{fill:#fcee21;}.cls-14{opacity:0.57;}.cls-15{opacity:0.43;}.cls-16{fill:#fbb03b;opacity:0.32;}.cls-17{fill:#ccc;}.cls-18{fill:#8d8df7;}</style></defs><title>VUNDET</title><circle class="cls-1" cx="1810.8808" cy="308.0098" r="5.198"/><circle class="cls-1" cx="1873.8808" cy="345.0098" r="5.198"/><circle class="cls-2" cx="1832.7869" cy="344.7675" r="41.2131"/><path class="cls-3" d="M1853.9175,310.9405a4.1046,4.1046,0,0,0-1.5947-5.5814,5.1307,5.1307,0,0,0-6.9767,1.9933,6.4134,6.4134,0,0,0,2.4917,8.7209,8.0166,8.0166,0,0,0,10.9011-3.1146,10.021,10.021,0,0,0-3.8933-13.6264"/><ellipse class="cls-4" cx="1819.4205" cy="362.2181" rx="13.3664" ry="10.0248" transform="translate(596.0202 1756.7734) rotate(-60)"/><ellipse class="cls-5" cx="1827.5016" cy="332.6826" rx="9.6535" ry="6.9562" transform="translate(806.1389 1884.2167) rotate(-66.9607)"/><ellipse cx="1827.3623" cy="334.0356" rx="8.354" ry="6.0198" transform="translate(804.8091 1884.912) rotate(-66.9607)"/><ellipse class="cls-5" cx="1827.6771" cy="337.3972" rx="2.4134" ry="1.7391" transform="translate(801.9072 1887.2477) rotate(-66.9607)"/><ellipse class="cls-5" cx="1842.6135" cy="343.4063" rx="9.1549" ry="6.3589" transform="translate(457.1835 1605.839) rotate(-52.8975)"/><ellipse cx="1841.6122" cy="343.3112" rx="7.9225" ry="5.5029" transform="translate(456.8621 1605.0026) rotate(-52.8975)"/><ellipse class="cls-5" cx="1838.7772" cy="345.301" rx="2.2887" ry="1.5897" transform="translate(454.1503 1603.531) rotate(-52.8975)"/><path class="cls-6" d="M1819.2812,315.8229c1.9253,3.6983,8.879,3.889,15.5316.4259"/><ellipse class="cls-7" cx="1810.5095" cy="336.9704" rx="4.0842" ry="7.4258" transform="translate(233.2668 1287.6538) rotate(-41.6227)"/><ellipse class="cls-7" cx="1849.1236" cy="357.7626" rx="4.0842" ry="7.4258" transform="translate(1125.2916 2096.5321) rotate(-78.3486)"/><path class="cls-8" d="M1679.8287,336.3366a4.1015,4.1015,0,0,0,1.9625-2.8216,4.298,4.298,0,0,0-8.4689-1.4533,4.0725,4.0725,0,0,0,.3557,2.4723,17.7109,17.7109,0,0,0-2.0024-.1059,4.5344,4.5344,0,0,0,1.7252-2.8239,4.7756,4.7756,0,0,0-9.41-1.6148,4.5055,4.5055,0,0,0-.0513.7671,4.35,4.35,0,0,0-2.3012-1.1708,4.2379,4.2379,0,0,0-4.9409,3.39,4.0437,4.0437,0,0,0,.0346,1.4947,4.4094,4.4094,0,0,0-.7406-.2031,4.1786,4.1786,0,1,0-1.413,8.2336,4.3317,4.3317,0,0,0,2.9926-.5764,16.2791,16.2791,0,0,0-1.0886,1.9079,3.8526,3.8526,0,0,0-2.3745-1.4122,3.7144,3.7144,0,1,0-1.256,7.3188,3.8658,3.8658,0,0,0,2.042-.2084,17.2023,17.2023,0,0,0,34.03,4.515A16.7693,16.7693,0,0,0,1679.8287,336.3366Zm-12.8518-1.222a17.2709,17.2709,0,0,0-2.4622.9144,4.0524,4.0524,0,0,0,.6517-1.6,4,4,0,0,0,.0354-.5308A4.7891,4.7891,0,0,0,1666.9769,335.1146Zm-7.4921,2.5016a4.4011,4.4011,0,0,0,.7407.2031,4.357,4.357,0,0,0,1.263.0139,16.8373,16.8373,0,0,0-2.1375,1.8788,3.5937,3.5937,0,0,0,.1338-2.0958Z"/><ellipse class="cls-9" cx="1746.7994" cy="216.4021" rx="17.2439" ry="4.5639" transform="translate(1058.2997 1836.3113) rotate(-74.0355)"/><ellipse class="cls-9" cx="1738.1448" cy="214.2297" rx="5.1772" ry="15.6937" transform="translate(1.8218 442.7556) rotate(-14.5243)"/><path class="cls-8" d="M1643.0912,346.2778a4.1017,4.1017,0,0,0,1.2967-3.183,4.298,4.298,0,0,0-8.5815.4372,4.0721,4.0721,0,0,0,.8887,2.3344,17.6891,17.6891,0,0,0-1.977.3354,4.5351,4.5351,0,0,0,1.0647-3.1333,4.7756,4.7756,0,0,0-9.5351.4859,4.4912,4.4912,0,0,0,.1181.76,4.3509,4.3509,0,0,0-2.5019-.6382,4.2379,4.2379,0,0,0-4.0782,4.39,4.0438,4.0438,0,0,0,.3613,1.4507,4.4116,4.4116,0,0,0-.7672-.0359,4.1787,4.1787,0,1,0,.4252,8.3432,4.3322,4.3322,0,0,0,2.7936-1.218,16.2756,16.2756,0,0,0-.6442,2.1,3.8527,3.8527,0,0,0-2.6262-.8577,3.7144,3.7144,0,1,0,.3779,7.4162,3.865,3.865,0,0,0,1.9467-.6508,17.2023,17.2023,0,0,0,34.1921-3.05A16.7691,16.7691,0,0,0,1643.0912,346.2778Zm-12.8073,1.6231a17.2873,17.2873,0,0,0-2.2021,1.4316,3.5541,3.5541,0,0,0,.2037-2.2294A4.7863,4.7863,0,0,0,1630.2839,347.9009Zm-6.762,4.0822a3.97,3.97,0,0,0,2.0025-.2272,16.8287,16.8287,0,0,0-1.6739,2.3014,3.5941,3.5941,0,0,0-.3286-2.0742Z"/><path class="cls-9" d="M1629.4326,368.94c47.9981-3.2508,90.1607-72.7759,109.1372-136.8018,3.2478-10.45,7.4256-10.156,10.6511.7074,18.55,65.9414,63.6145,142.7447,115.6214,142.6594,12.8462.3689,17.6645,10.0319,6.0178,25.0351-31.5478,39.8206-78.0874,81.8537-125.1616,77.6205-47.1506-1.0539-91.6575-46.4384-121.5117-83.3491C1613.0967,380.6966,1617.4907,370.2184,1629.4326,368.94Z"/><path class="cls-4" d="M1800.84,381.4028c0-16.5154-12.4418-29.9037-27.79-29.9037-10.11,0-18.9573,5.811-23.82,14.4972-4.8624-8.6862-13.71-14.4972-23.82-14.4972-15.3477,0-27.79,13.3883-27.79,29.9037,0,12.0416,6.6177,22.414,16.15,27.1536l34.9031,37.99,35.4538-37.7173C1793.9618,404.2237,1800.84,393.68,1800.84,381.4028Z"/><polygon class="cls-10" points="1483.265 285.384 1495.098 311.032 1427 310.233 1483.265 285.384"/><polygon class="cls-11" points="1472.241 284.606 1779.535 237.621 1486.337 372.859 1472.241 284.606"/><polygon class="cls-11" points="1462.381 254.508 1779.786 237.886 1458.575 184.926 1462.381 254.508"/><polygon class="cls-12" points="1466.228 294.374 1464.015 254.968 1779.269 238.018 1466.228 294.374"/><polygon class="cls-12" points="1463.735 255.425 1502.223 279.892 1427.233 310.392 1463.735 255.425"/><polygon class="cls-13" points="131.022 102.296 138.217 107.74 147.048 105.89 143.785 113.272 149.041 120.197 139.829 119.315 134.247 125.446 131.816 117.518 123.11 114.382 130.82 110.365 131.022 102.296"/><polygon class="cls-13" points="1532.49 57.614 1542.072 65.76 1554.214 62.485 1549.428 74.115 1556.294 84.651 1543.755 83.693 1535.856 93.479 1532.893 81.257 1521.145 76.77 1531.853 70.174 1532.49 57.614"/><polygon class="cls-13" points="1482.353 -9.174 1488.599 -3.798 1496.542 -5.992 1493.39 1.72 1497.857 8.685 1489.662 8.076 1484.479 14.574 1482.568 6.485 1474.898 3.537 1481.911 -0.854 1482.353 -9.174"/><polygon class="cls-13" points="1233.022 69.296 1240.217 74.74 1249.048 72.89 1245.785 80.272 1251.041 87.197 1241.829 86.315 1236.247 92.446 1233.816 84.518 1225.11 81.382 1232.82 77.365 1233.022 69.296"/><polygon class="cls-13" points="1124.49 108.614 1134.072 116.76 1146.214 113.485 1141.428 125.115 1148.294 135.651 1135.755 134.693 1127.856 144.479 1124.893 132.257 1113.145 127.77 1123.853 121.174 1124.49 108.614"/><polygon class="cls-13" points="66.49 207.614 76.072 215.76 88.214 212.485 83.428 224.115 90.294 234.651 77.755 233.693 69.856 243.479 66.893 231.257 55.145 226.77 65.853 220.174 66.49 207.614"/><polygon class="cls-13" points="867.49 75.614 877.072 83.76 889.214 80.485 884.428 92.115 891.294 102.651 878.755 101.693 870.856 111.479 867.893 99.257 856.145 94.77 866.853 88.174 867.49 75.614"/><polygon class="cls-13" points="882.62 4.812 887.704 9.571 894.334 7.438 891.579 14.485 895.159 20.716 888.372 20.312 883.954 26.295 882.514 18.999 876.205 16.466 882.102 12.36 882.62 4.812"/><polygon class="cls-13" points="622.471 86.294 628.052 90.975 635.098 89.125 632.341 95.772 636.35 101.817 629.065 101.243 624.497 106.829 622.752 99.827 615.919 97.235 622.125 93.482 622.471 86.294"/><polygon class="cls-13" points="590.49 39.614 600.072 47.76 612.214 44.485 607.428 56.115 614.294 66.651 601.755 65.693 593.856 75.479 590.893 63.257 579.145 58.77 589.853 52.174 590.49 39.614"/><polygon class="cls-13" points="419.015 170.125 426.305 175.622 435.244 173.764 431.948 181.207 437.275 188.196 427.948 187.298 422.302 193.476 419.834 185.478 411.016 182.308 418.818 178.262 419.015 170.125"/><polygon class="cls-13" points="222.49 54.614 232.072 62.76 244.214 59.485 239.428 71.115 246.294 81.651 233.755 80.693 225.856 90.479 222.893 78.257 211.145 73.77 221.853 67.174 222.49 54.614"/><polygon class="cls-13" points="1178.943 21.036 1189.383 30.041 1202.668 26.356 1197.389 39.288 1204.852 50.958 1191.149 49.945 1182.476 60.843 1179.286 47.285 1166.463 42.35 1178.194 34.984 1178.943 21.036"/><polygon class="cls-13" points="1871.228 167.107 1877.562 172.594 1885.631 170.337 1882.417 178.229 1886.941 185.343 1878.621 184.734 1873.348 191.387 1871.42 183.119 1863.636 180.117 1870.765 175.616 1871.228 167.107"/><polygon class="cls-13" points="1766.49 39.614 1776.072 47.76 1788.214 44.485 1783.428 56.115 1790.294 66.651 1777.755 65.693 1769.856 75.479 1766.893 63.257 1755.145 58.77 1765.853 52.174 1766.49 39.614"/><circle class="cls-14" cx="236" cy="584" r="84"/><polygon class="cls-15" points="411.149 280.366 460.584 312.572 307.715 492.258 411.149 280.366"/><polygon class="cls-15" points="260.292 237.314 318.556 246.605 252.082 472.962 260.292 237.314"/><polygon class="cls-15" points="447.738 861.036 399.18 894.549 290.953 684.924 447.738 861.036"/><polygon class="cls-15" points="539.799 419.827 561.616 474.645 333.108 533.299 539.799 419.827"/><path class="cls-15" d="M576.591,562.4512l-1.2329,58.9871-233.322-34.883Z"/><polygon class="cls-15" points="101.522 274.675 158.098 257.938 195.711 490.835 101.522 274.675"/><polygon class="cls-15" points="543.904 723.378 515.762 775.234 324.405 637.254 543.904 723.378"/><polygon class="cls-15" points="1 593 0 562 118.525 588.044 1 593"/><polygon class="cls-15" points="-2 760 -3 709 148.864 643.206 -2 760"/><polygon class="cls-15" points="120.814 902.627 66.626 879.289 186.739 676.24 120.814 902.627"/><polygon class="cls-15" points="272.31 925 213.31 924.853 243.892 690.929 272.31 925"/><polygon class="cls-15" points="-1 443 -2 384 159.356 516.867 -1 443"/><path class="cls-6" d="M1854.2691,330.8535c-1.5046,2.95,1.5772,7.535,6.8833,10.2414"/><circle class="cls-16" cx="597.5" cy="57.5" r="20.5"/><circle class="cls-16" cx="424.5" cy="181.5" r="15.5"/><circle class="cls-16" cx="1540.5" cy="74.5" r="20.5"/><circle class="cls-16" cx="1487.5" cy="2.5" r="15.5"/><circle class="cls-16" cx="1238.5" cy="81.5" r="15.5"/><circle class="cls-16" cx="1186.5" cy="39.5" r="20.5"/><circle class="cls-16" cx="1132" cy="126" r="21"/><circle class="cls-16" cx="886.5" cy="14.5" r="15.5"/><circle class="cls-16" cx="875" cy="93" r="22"/><circle class="cls-16" cx="626.5" cy="96.5" r="15.5"/><circle class="cls-16" cx="1875.5" cy="178.5" r="15.5"/><circle class="cls-16" cx="1773" cy="56" r="21"/><circle class="cls-16" cx="74" cy="225" r="25"/><circle class="cls-16" cx="137.5" cy="113.5" r="19.5"/><circle class="cls-16" cx="230" cy="72" r="21"/><ellipse class="cls-17" cx="428.0742" cy="465.5935" rx="254.0742" ry="236.2896"/><ellipse class="cls-17" cx="1011.8691" cy="443.007" rx="254.0742" ry="236.2896"/><ellipse class="cls-17" cx="1318.5671" cy="362.2168" rx="171.0273" ry="179.8233"/><ellipse class="cls-17" cx="758.6172" cy="338.7616" rx="254.0742" ry="236.2896"/><ellipse class="cls-17" cx="776.7067" cy="760.9554" rx="227.4769" ry="263.9172" transform="translate(-269.4919 464.6533) rotate(-28.6)"/><ellipse class="cls-17" cx="430.5409" cy="736.6315" rx="167.7383" ry="156.3681"/><ellipse class="cls-17" cx="1013.5136" cy="813.9468" rx="145.5376" ry="153.762"/><ellipse class="cls-17" cx="1427.9258" cy="583.7383" rx="254.0742" ry="236.2896"/><ellipse class="cls-17" cx="1174.6739" cy="732.288" rx="145.5376" ry="153.762"/><ellipse class="cls-5" cx="433.3784" cy="473.2648" rx="251.3784" ry="222.7177"/><ellipse class="cls-5" cx="1010.9793" cy="451.9756" rx="251.3784" ry="222.7177"/><ellipse class="cls-5" cx="1314.4231" cy="375.8258" rx="169.2126" ry="169.4948"/><ellipse class="cls-5" cx="760.4144" cy="353.7177" rx="251.3784" ry="222.7177"/><ellipse class="cls-5" cx="778.3119" cy="751.6619" rx="221.8369" ry="252.3766" transform="translate(-297.5245 636.158) rotate(-37.8742)"/><ellipse class="cls-5" cx="435.819" cy="728.7351" rx="165.9586" ry="147.3867"/><ellipse class="cls-5" cx="1012.6063" cy="801.6097" rx="143.9935" ry="144.9303"/><ellipse class="cls-5" cx="1422.6216" cy="584.6236" rx="251.3784" ry="222.7177"/><ellipse class="cls-5" cx="1172.0567" cy="724.641" rx="143.9935" ry="144.9303"/><path class="cls-18" d="M271.1729,621.8186q-28.4195-21.249-56.8384-42.4978,41.4009-12.0615,83.1084-22.6765,51.5646,44.5785,103.1289,89.157c1.6777,16.7434,1.19,28.8718-2.6953,36.468-3.8843,7.6018-12.105,13.4368-25.1172,17.68-16.001,5.2249-34.6563,5.5676-56.8887,1.0161q-33.2841-6.832-79.0391-27.3994a735.1148,735.1148,0,0,1-94.2065-51.1872c-33.6724-21.5433-59.1128-41.5794-75.2715-60.2764-16.1792-18.6812-21.7612-34.89-16.6831-48.4343,4.0327-10.4829,17.9575-19.1192,41.1875-25.4986,22.3984-6.143,41.88-8.4311,58.0464-7.1228,16.1841,1.3113,33.103,5.4886,50.6079,12.4827q26.2823,10.5,54.7993,29.5071-21.1736,12.4343-41.187,25.3122-18.1758-10.7541-34.38-14.6748c-10.8042-2.6042-20.57-2.7-29.1347-.2805-12.7681,3.6087-16.4019,11.366-10.3765,23.0823,5.99,11.7241,23.96,27.8183,53.3481,48.3393,31.229,21.8069,56.815,36.3333,76.22,43.7212,19.45,7.3838,34.3139,9.398,45.1645,6.0266,5.1572-1.602,8.7266-4.1308,10.7808-7.613,2.0586-3.48,2.98-8.6062,2.957-15.3977q-12.2212-9.72-24.4443-19.4387Q287.691,616.841,271.1729,621.8186Z"/><path class="cls-18" d="M514.2344,612.2366Q488.01,617.8865,461.89,624.2q13.9006,18.432,28.3355,36.8208-21.7515,5.5737-43.4165,11.644Q354.4039,560.5023,286.94,446.1345q34.407-7.0067,68.9546-13.1758Q489.0362,533.4836,597.3135,636.6794q-22.4985,4.47-44.9282,9.4622Q533.584,629.1611,514.2344,612.2366ZM462.84,567.947q-43.7945-36.6675-90.21-73.0339Q398.47,535.4,426.9248,575.72,444.86,571.69,462.84,567.947Z"/><path class="cls-18" d="M452.5845,417.366q41.844-6.0279,83.8325-10.838,55.971,64.3312,105.5669,128.9078Q618.3208,467.57,601.022,399.8535q42.0505-3.8723,84.1982-6.5282,41.2588,108.5349,82.5186,217.07-17.7482,1.9578-35.4746,4.2348-37.952-82.9431-75.9043-165.8864a1634.7083,1634.7083,0,0,0,48.6045,169.5852q-16.0254,2.2833-32.0269,4.8286-62.3951-80.8084-134.7056-161.2339Q592,544.7974,645.7686,627.6707q-17.6514,3.0574-35.2632,6.4335Q531.5443,525.7355,452.5845,417.366Z"/><path class="cls-18" d="M726.0083,391.0405q86.001-4.2162,172.2085-3.3759,1.4385,22.6435,2.8784,45.2866-50.2112-.1224-100.3862,1.6,3.85,17.105,7.6987,34.21,43.96-1.7812,87.9649-2.0634,1.6332,21.6583,3.2656,43.3159-40.69.6309-81.3511,2.6484,4.7739,21.2161,9.5488,42.4324,41.5525-2.4914,83.15-3.41,1.4121,24.0048,2.8243,48.01-59.297,2.155-118.5035,7.8528Q760.658,499.2939,726.0083,391.0405Z"/><path class="cls-18" d="M1011.0444,495.1631c4.4229-33.759,16.1866-59.7717,37.7925-77.3833,21.4556-17.6178,50.4458-24.997,84.4458-21.9307,34.854,3.1553,58.4888,15.073,68.49,34.5667,10.1529,19.5486,6.1421,44.7517-9.6025,75.9-11.3911,22.6318-24.0679,40.8335-37.1245,54.8442q-19.6407,21.014-40.7358,32.207c-14.0767,7.49-28.3716,10.9353-43.8072,10.2876-15.6958-.6552-27.6391-4.64-36.63-12.25-8.9664-7.6018-15.6187-19.4475-20.2232-35.6433C1009.0747,539.5737,1007.8472,519.335,1011.0444,495.1631Zm53.7759,2.6887c-4.8638,20.5393-5.2134,35.4534-1.5581,44.6816,3.688,9.2408,10.28,14.0577,20.2681,14.6158,10.2685.5732,19.6318-3.2364,28.59-11.4165,8.91-8.1848,17.896-23.2942,26.49-45.45,7.2294-18.6441,9.0781-32.5806,5.0512-41.8748-3.9917-9.2815-12.5268-14.5339-25.102-15.5686-12.0454-.99-23.0357,2.7361-32.4517,11.1887C1076.6523,462.4775,1069.7246,477.1309,1064.82,497.8518Z"/><path class="cls-18" d="M1241.8032,411.1582q33.4776,4.2636,66.8936,9.2971a1002.3021,1002.3021,0,0,1-50.37,140.1521q66.0417-63.9751,142.7456-124.739,32.3283,5.9212,64.5659,12.5674-123.3831,79.26-222.1109,166.7707-23.3466-3.0666-46.7539-5.5742A801.487,801.487,0,0,0,1241.8032,411.1582Z"/><path class="cls-18" d="M1486.2417,452.76q85.0327,18.1611,169.27,41.3784-24.7632,16.3638-49.5283,32.7276-49.0635-13.1613-98.4566-24.4788-15.71,13.1522-31.42,26.3045,43.2744,9.6448,86.2974,20.789-23.4032,15.7263-46.8081,31.4529-39.7815-9.9364-79.8091-18.4863-19.486,16.3135-38.9712,32.6267,40.9029,8.3093,81.5435,18.1914-26.38,17.3148-52.7583,34.63-57.93-13.2432-116.4693-22.9441Q1397.6872,538.8554,1486.2417,452.76Z"/><path class="cls-18" d="M1449.0068,653.3965q122.0932-74.301,244.188-148.6011,52.232,15.1433,104.0586,32.2427c19.2266,6.3457,31.5586,12.4726,36.8071,18.0473,5.2632,5.5857,4.2876,12.2571-3.0668,19.8934-7.3492,7.6433-20.8775,15.3156-40.1783,23.1711a312.3584,312.3584,0,0,1-49.6484,15.6255,298.0374,298.0374,0,0,1-45.6963,6.7725,182.5837,182.5837,0,0,1-29.4731-.72c2.5146,3.5381,3.2968,6.5293,2.4243,8.9847-.565,1.644-3.0357,4.7509-7.5635,9.2668a85.83,85.83,0,0,1-11.7085,10.032q-31.7454,21.9272-66.3291,42.6789-23.5518-7.4919-47.249-14.3772,32.4426-23.3243,61.5659-47.944c7.6074-6.3516,11.6074-10.7671,12.1772-13.1773.5982-3.1907-1.4419-5.4871-6.039-6.8262q-2.223-.6484-4.4463-1.2929-53.6858,28.4911-107.37,56.9819Q1470.2852,658.5351,1449.0068,653.3965Zm199.8086-72.752q11.4243,3.4116,22.8257,6.9322c2.47.7629,8.4717,1.613,18.1152,2.6313,4.7295.584,10.5987.1206,17.6426-1.3789a91.8943,91.8943,0,0,0,19.856-6.5747c9.1406-4.2769,14.2763-8.1738,15.3227-11.7224,1.0459-3.5408-3.7812-7.0662-14.4023-10.44q-12.7787-4.0566-25.5845-7.9859Q1675.7044,566.3752,1648.8154,580.6445Z"/></svg>
